<?xml version="1.0" standalone="no"?>
<!DOCTYPE svg PUBLIC "-//W3C//DTD SVG 20010904//EN"
 "http://www.w3.org/TR/2001/REC-SVG-20010904/DTD/svg10.dtd">
<svg version="1.0" xmlns="http://www.w3.org/2000/svg"
 width="300.000000pt" height="300.000000pt" viewBox="0 0 300.000000 300.000000"
 preserveAspectRatio="xMidYMid meet">
<metadata>
Created by potrace 1.10, written by Peter Selinger 2001-2011
</metadata>
<g transform="translate(0.000000,300.000000) scale(0.100000,-0.100000)"
fill="#000000" stroke="none">
<path d="M1175 2989 c-16 -5 -43 -12 -60 -15 -115 -20 -291 -95 -428 -181
-208 -130 -453 -398 -544 -593 -6 -14 -25 -54 -42 -90 -28 -59 -47 -116 -87
-268 -9 -34 -13 -98 -12 -180 l1 -127 7 100 c9 130 24 205 65 332 72 218 201
428 366 592 245 246 577 404 904 431 l90 7 -115 1 c-63 0 -128 -4 -145 -9z"/>
<path d="M1640 2990 c183 -14 355 -62 522 -145 310 -155 532 -379 684 -690 90
-185 130 -328 144 -520 l8 -110 -2 155 c-2 145 -4 162 -35 259 -77 243 -194
442 -361 615 -100 104 -245 218 -336 267 -30 16 -61 32 -67 36 -53 34 -291
123 -328 123 -10 0 -20 4 -23 9 -3 4 -72 8 -153 8 -142 1 -144 0 -53 -7z"/>
<path d="M1397 2969 c-15 -4 -47 -6 -70 -4 -31 3 -38 1 -27 -6 12 -9 10 -10
-7 -6 -13 3 -26 1 -29 -5 -4 -6 -24 -7 -51 -3 -48 7 -106 -2 -98 -15 9 -15
-45 -41 -98 -47 -38 -5 -46 -8 -32 -14 18 -7 17 -8 -5 -8 -29 -1 -66 -20 -40
-21 8 0 -4 -10 -28 -22 -24 -13 -37 -25 -31 -29 6 -3 0 -9 -15 -13 -15 -4 -24
-11 -21 -16 3 -5 -12 -21 -34 -36 -23 -14 -38 -30 -36 -35 3 -4 -4 -13 -17
-20 -12 -6 -31 -21 -42 -32 -12 -11 -15 -16 -7 -12 11 6 13 4 6 -11 -4 -10 -7
-27 -7 -36 0 -10 -16 -25 -41 -38 -30 -15 -35 -20 -17 -17 52 8 96 30 92 46
-1 6 4 11 12 11 14 0 16 16 4 36 -8 12 34 64 51 64 7 0 10 3 7 8 -2 4 18 23
44 42 27 20 47 41 45 48 -3 7 -1 11 4 8 5 -3 14 0 20 8 7 8 28 17 48 21 26 5
33 9 23 15 -10 6 -7 10 13 15 15 4 33 5 41 2 10 -4 13 0 11 15 -4 17 -1 19 21
14 15 -4 23 -3 20 3 -7 11 22 24 35 15 5 -3 9 -1 9 5 0 5 -6 12 -12 14 -10 4
-10 6 0 6 7 1 10 6 7 11 -4 7 2 7 17 1 68 -25 90 -30 79 -17 -8 10 -2 12 29
11 24 -1 41 3 44 11 4 10 29 12 103 9 137 -5 212 -23 197 -47 -4 -6 3 -5 15 2
17 9 26 9 37 0 7 -7 12 -16 9 -20 -2 -4 7 -6 20 -4 14 1 25 -2 25 -7 0 -5 5
-9 11 -9 6 0 9 6 6 14 -7 17 131 -64 206 -121 31 -24 59 -43 62 -43 17 0 59
-76 52 -92 -1 -2 3 3 9 10 9 9 13 5 19 -20 4 -18 7 -38 6 -44 -1 -6 6 -17 14
-24 13 -11 15 -10 9 6 -5 15 -4 16 4 4 7 -8 7 -19 2 -25 -20 -25 46 -64 70
-42 7 7 5 0 -4 -14 -14 -23 -15 -30 -3 -52 l14 -27 19 21 c19 21 19 22 -3 15
-23 -7 -32 7 -13 19 13 8 5 51 -9 48 -6 -2 -13 8 -17 22 -7 28 -23 34 -20 9 0
-9 -5 -19 -13 -22 -10 -3 -11 0 -5 9 11 19 13 49 1 42 -5 -3 -6 3 -3 15 4 12
2 23 -5 28 -9 5 -10 2 -6 -10 4 -10 3 -15 -3 -11 -6 4 -10 12 -9 18 1 7 1 21
-1 32 -1 20 -1 20 -10 0 -7 -15 -9 -16 -9 -4 -1 9 -8 22 -16 29 -8 7 -15 22
-15 34 0 12 -13 36 -30 54 -16 18 -30 28 -30 22 0 -6 -5 -8 -12 -4 -8 5 -9 2
-5 -9 3 -9 -17 7 -45 36 -29 28 -51 56 -49 61 1 5 -4 4 -11 -2 -11 -8 -27 -1
-73 34 -62 46 -70 51 -60 34 8 -13 -1 -13 -26 1 -11 6 -28 12 -37 14 -9 2 -31
8 -49 14 -17 5 -34 7 -37 4 -2 -3 -11 -1 -18 3 -7 5 -22 9 -33 9 -11 1 -31 4
-45 8 -46 12 -75 14 -103 6z m378 -87 c-3 -3 -11 0 -18 7 -9 10 -8 11 6 5 10
-3 15 -9 12 -12z m-885 -116 c0 -3 -4 -8 -10 -11 -5 -3 -10 -1 -10 4 0 6 5 11
10 11 6 0 10 -2 10 -4z m1150 -57 c0 -5 -9 -1 -20 8 -11 10 -20 22 -20 27 0 5
9 1 20 -9 11 -10 20 -22 20 -26z m-1284 -101 c4 -7 3 -8 -5 -4 -6 4 -14 0 -17
-8 -3 -9 -10 -16 -15 -16 -6 0 -5 9 1 20 12 22 25 26 36 8z"/>
<path d="M1336 2926 c10 -8 39 -16 64 -19 41 -6 43 -5 26 8 -11 8 -27 15 -35
16 -9 0 -29 2 -45 4 -27 4 -27 3 -10 -9z"/>
<path d="M1455 2931 c-17 -7 -15 -9 16 -20 20 -6 44 -9 53 -5 11 4 16 2 14 -6
-2 -7 3 -15 11 -18 9 -3 11 0 6 8 -5 9 -4 11 4 6 6 -4 9 -11 7 -15 -3 -4 8 -8
25 -9 31 -1 85 -29 75 -39 -3 -3 -12 0 -21 7 -9 7 -18 11 -21 8 -3 -3 12 -16
33 -29 52 -32 62 -36 35 -11 -14 12 -19 23 -12 27 15 9 12 25 -5 25 -14 0
-109 41 -169 72 -13 7 -16 7 -12 -1 4 -6 0 -11 -9 -11 -9 0 -13 5 -10 10 7 11
7 11 -20 1z"/>
<path d="M1163 2913 c4 -3 5 -9 2 -14 -4 -5 2 -6 12 -2 16 6 16 5 4 -10 -7 -9
-17 -14 -22 -11 -5 3 -9 0 -9 -5 0 -6 11 -11 24 -11 13 0 31 -3 40 -6 9 -3 16
-1 16 5 0 6 -12 11 -26 11 -14 0 -23 4 -20 9 3 5 15 7 26 4 25 -7 70 4 70 17
0 6 -7 6 -19 -1 -13 -9 -26 -9 -47 -2 -37 14 -61 21 -51 16z"/>
<path d="M1392 2867 c90 -40 146 -71 86 -48 -14 5 -29 7 -33 3 -4 -4 -12 1
-19 11 -15 19 -111 34 -121 18 -3 -6 4 -8 16 -6 13 3 28 0 35 -6 8 -7 14 -7
18 0 4 6 21 0 43 -14 20 -14 46 -25 57 -25 12 0 27 -5 34 -12 9 -9 12 -9 12 1
0 7 5 9 10 6 6 -4 7 -11 4 -17 -4 -6 1 -6 14 1 27 14 29 14 29 -4 0 -10 -6
-14 -15 -10 -29 11 10 -25 42 -40 17 -7 46 -27 65 -44 54 -49 51 -36 -4 18
-27 27 -52 47 -55 46 -4 -2 -11 5 -18 16 -26 41 31 9 80 -45 20 -22 37 -35 38
-28 0 6 0 14 0 17 0 3 -3 6 -7 8 -4 1 -19 13 -33 27 -38 38 -131 81 -147 68
-10 -8 -13 -7 -13 5 0 15 -171 97 -201 97 -8 0 30 -20 83 -43z m163 -75 c-3
-3 -11 0 -18 7 -9 10 -8 11 6 5 10 -3 15 -9 12 -12z"/>
<path d="M1460 2890 c12 -9 9 -10 -15 -6 l-30 6 35 -20 c42 -23 61 -26 34 -4
-19 15 -19 16 1 9 11 -4 27 -8 35 -10 8 -2 24 -7 35 -11 14 -5 17 -4 10 4 -5
5 -26 15 -45 20 -19 5 -44 13 -55 17 -17 6 -17 5 -5 -5z"/>
<path d="M1285 2880 c-3 -6 1 -7 9 -4 18 7 21 14 7 14 -6 0 -13 -4 -16 -10z"/>
<path d="M1260 2860 c0 -5 5 -10 11 -10 5 0 7 5 4 10 -3 6 -8 10 -11 10 -2 0
-4 -4 -4 -10z"/>
<path d="M1861 2854 c0 -11 3 -14 6 -6 3 7 2 16 -1 19 -3 4 -6 -2 -5 -13z"/>
<path d="M1515 2840 c4 -6 14 -10 23 -10 9 0 30 -9 46 -19 16 -11 36 -17 44
-13 11 4 13 2 7 -8 -6 -9 -4 -11 4 -6 7 5 21 0 33 -11 16 -14 20 -14 16 -3 -2
8 -20 23 -39 32 -47 23 -141 49 -134 38z"/>
<path d="M1186 2827 c2 -7 29 -13 61 -14 51 -2 55 -1 38 11 -25 17 -106 20
-99 3z"/>
<path d="M1716 2825 c10 -8 24 -14 29 -14 6 0 1 6 -9 14 -11 8 -24 15 -30 15
-5 0 -1 -7 10 -15z"/>
<path d="M1105 2820 c-17 -8 -16 -9 7 -7 15 2 30 6 34 10 10 10 -17 8 -41 -3z"/>
<path d="M1345 2809 c3 -4 -1 -9 -7 -12 -7 -3 6 -8 30 -12 23 -4 42 -13 42
-19 0 -6 5 -4 10 4 7 12 12 12 22 2 9 -9 9 -12 -1 -12 -25 0 3 -23 64 -51 69
-32 80 -34 69 -18 -4 8 1 9 17 5 24 -7 24 -7 4 9 -11 10 -33 22 -48 27 -22 8
-26 13 -15 20 10 8 10 9 -2 5 -8 -2 -19 2 -25 8 -21 25 -174 67 -160 44z m170
-66 c30 -20 53 -38 51 -40 -8 -8 -113 51 -113 63 0 19 -1 19 62 -23z"/>
<path d="M1950 2808 c0 -9 5 -20 10 -23 13 -8 13 5 0 25 -8 13 -10 13 -10 -2z"/>
<path d="M1028 2793 c6 -2 18 -2 25 0 6 3 1 5 -13 5 -14 0 -19 -2 -12 -5z"/>
<path d="M1125 2792 c6 -7 61 -12 117 -12 15 0 29 -4 33 -9 3 -5 31 -15 63
-21 31 -7 77 -23 101 -36 48 -27 51 -27 51 -16 0 5 -22 20 -50 34 -27 14 -46
28 -43 32 4 3 -1 6 -10 6 -10 0 -17 -5 -17 -11 0 -6 -5 -7 -12 -2 -14 8 -19 9
-56 11 -13 1 -20 7 -17 12 3 6 -6 11 -22 11 -123 7 -144 7 -138 1z"/>
<path d="M1754 2788 c-4 -7 -3 -8 4 -4 6 3 16 -2 21 -13 14 -26 14 -34 -1 -24
-30 18 -36 9 -13 -21 35 -46 31 -58 -6 -16 -24 27 -28 29 -18 10 6 -14 29 -42
50 -63 33 -32 37 -34 27 -12 -6 14 -15 25 -19 25 -5 0 -6 6 -3 14 3 8 1 17 -5
21 -6 3 -11 11 -11 17 0 7 6 6 15 -2 8 -7 15 -20 15 -29 0 -15 34 -61 44 -61
3 0 -5 19 -16 42 -11 23 -21 48 -22 55 -1 7 -8 19 -14 25 -7 7 -12 17 -12 24
0 16 -28 26 -36 12z"/>
<path d="M1820 2755 c13 -14 26 -23 28 -20 6 6 -33 45 -44 45 -4 0 3 -11 16
-25z"/>
<path d="M1190 2760 c8 -5 20 -10 25 -10 6 0 3 5 -5 10 -8 5 -19 10 -25 10 -5
0 -3 -5 5 -10z"/>
<path d="M1166 2724 c-20 -14 -20 -14 0 -15 10 0 34 -1 52 -2 29 -2 31 -1 15
11 -28 22 78 5 157 -25 36 -13 74 -26 85 -28 20 -4 20 -4 0 11 -25 20 -84 46
-110 49 -133 15 -155 16 -155 5 0 -9 -4 -9 -13 -2 -8 7 -18 6 -31 -4z"/>
<path d="M1842 2691 c12 -25 24 -39 26 -33 2 7 9 10 15 6 7 -3 5 0 -4 8 -9 7
-14 18 -12 25 2 6 -1 14 -6 18 -6 3 -11 1 -11 -6 0 -7 -7 -4 -15 7 -9 10 -6
-1 7 -25z"/>
<path d="M1886 2712 c-2 -4 -1 -14 5 -22 7 -12 9 -10 9 8 0 23 -5 28 -14 14z"/>
<path d="M1330 2690 c39 -21 50 -24 50 -12 0 8 -58 32 -76 32 -5 -1 7 -9 26
-20z"/>
<path d="M1068 2693 c7 -3 16 -2 19 1 4 3 -2 6 -13 5 -11 0 -14 -3 -6 -6z"/>
<path d="M1165 2680 c3 -5 20 -10 36 -10 17 0 28 -4 25 -8 -2 -4 4 -9 16 -9
28 -2 161 -44 172 -53 11 -10 57 10 50 21 -3 5 0 9 7 9 8 0 8 4 -1 15 -7 8
-17 15 -22 15 -6 0 -5 -7 2 -15 15 -19 1 -19 -23 -1 -13 10 -14 15 -6 18 9 3
7 7 -5 11 -9 4 -15 3 -12 -2 11 -17 -24 -20 -61 -5 -26 11 -38 13 -41 5 -5
-16 -35 -14 -58 4 -21 16 -89 21 -79 5z m265 -48 c20 -16 21 -19 7 -25 -9 -3
-16 -2 -14 3 1 5 -7 16 -18 24 -11 8 -15 16 -9 16 7 0 22 -8 34 -18z"/>
<path d="M2079 2673 c-13 -16 -12 -17 4 -4 9 7 17 15 17 17 0 8 -8 3 -21 -13z"/>
<path d="M1078 2663 c6 -2 18 -2 25 0 6 3 1 5 -13 5 -14 0 -19 -2 -12 -5z"/>
<path d="M1122 2644 c-7 -8 -8 -14 -3 -14 10 0 25 19 20 25 -2 1 -10 -3 -17
-11z"/>
<path d="M1160 2630 c0 -5 10 -10 23 -10 18 0 19 2 7 10 -19 13 -30 13 -30 0z"/>
<path d="M1255 2630 c3 -5 18 -10 32 -10 32 0 28 5 -10 14 -19 4 -26 3 -22 -4z"/>
<path d="M2136 2623 c-6 -14 -5 -15 5 -6 7 7 10 15 7 18 -3 3 -9 -2 -12 -12z"/>
<path d="M1230 2600 c13 -11 30 -21 39 -21 26 -2 34 -4 73 -22 21 -9 45 -17
55 -16 14 0 13 2 -5 10 -13 5 -20 14 -17 20 4 5 1 9 -6 8 -8 -1 -21 1 -29 4
-37 16 -104 37 -118 37 -11 0 -9 -5 8 -20z"/>
<path d="M1330 2610 c8 -5 20 -10 25 -10 6 0 3 5 -5 10 -8 5 -19 10 -25 10 -5
0 -3 -5 5 -10z"/>
<path d="M2155 2610 c-3 -5 -1 -10 4 -10 6 0 11 5 11 10 0 6 -2 10 -4 10 -3 0
-8 -4 -11 -10z"/>
<path d="M1371 2596 c2 -2 15 -9 29 -15 24 -11 24 -11 6 3 -16 13 -49 24 -35
12z"/>
<path d="M630 2580 c8 -5 24 -10 34 -10 26 0 18 6 -19 14 -22 5 -26 4 -15 -4z"/>
<path d="M1068 2578 c5 -5 16 -8 23 -6 8 3 3 7 -10 11 -17 4 -21 3 -13 -5z"/>
<path d="M1180 2559 c-23 -6 -11 -13 18 -10 6 1 12 -3 12 -9 0 -5 5 -10 12
-10 17 0 149 -62 143 -68 -2 -3 3 -12 13 -20 18 -15 -15 5 -54 33 -12 9 -34
18 -50 20 -16 2 -39 7 -51 11 -14 4 -23 2 -23 -5 0 -6 7 -11 15 -11 8 0 15 -4
15 -9 0 -4 11 -6 25 -3 15 2 25 0 25 -7 0 -7 4 -10 9 -6 5 3 15 -1 23 -8 19
-18 68 -38 78 -32 5 3 21 -6 36 -20 30 -28 43 -33 24 -10 -7 8 -9 15 -4 15 5
0 -6 9 -23 20 -18 11 -33 24 -33 28 0 10 32 12 40 3 3 -3 16 -15 30 -26 16
-13 20 -14 12 -3 -10 13 -10 17 0 21 9 3 7 11 -10 28 -17 18 -25 21 -31 11
-12 -20 -60 -25 -67 -7 -3 8 -10 12 -15 9 -5 -3 -9 -1 -9 4 0 5 -21 15 -46 22
-25 7 -40 16 -34 20 17 10 -52 27 -80 19z m274 -95 c5 -14 4 -15 -9 -4 -17 14
-19 20 -6 20 5 0 12 -7 15 -16z"/>
<path d="M1258 2563 c7 -3 16 -2 19 1 4 3 -2 6 -13 5 -11 0 -14 -3 -6 -6z"/>
<path d="M1285 2550 c-4 -6 1 -7 11 -3 13 5 15 3 9 -7 -6 -10 -4 -12 8 -7 9 3
18 -1 21 -10 4 -8 13 -13 21 -9 8 3 15 1 15 -5 0 -6 5 -7 12 -3 7 4 -6 16 -33
30 -51 26 -56 28 -64 14z"/>
<path d="M1577 2534 c6 -16 -7 -19 -25 -4 -9 7 -9 7 -2 -2 6 -7 10 -16 10 -21
0 -4 -4 -5 -10 -2 -20 12 -10 -12 13 -31 12 -10 16 -12 10 -4 -17 19 -16 33 1
27 10 -4 13 -1 9 9 -3 7 0 14 6 14 6 0 11 -6 11 -12 0 -7 9 -24 19 -37 16 -20
19 -21 24 -7 4 10 3 15 -2 12 -4 -3 -17 10 -27 29 -18 34 -48 58 -37 29z"/>
<path d="M1088 2533 c12 -2 32 -2 45 0 12 2 2 4 -23 4 -25 0 -35 -2 -22 -4z"/>
<path d="M1610 2530 c0 -6 12 -16 28 -23 15 -6 32 -19 39 -27 14 -17 16 -7 7
28 -4 12 -11 22 -16 22 -5 0 -6 -4 -3 -10 10 -16 -11 -12 -25 5 -14 17 -30 20
-30 5z"/>
<path d="M662 2500 c-23 -17 -42 -33 -42 -37 0 -4 5 -2 12 5 27 27 29 9 2 -20
l-29 -31 40 29 39 29 -20 -30 c-40 -57 -52 -107 -25 -97 14 5 14 3 2 -11 -7
-9 -17 -15 -20 -12 -4 2 -8 -2 -8 -10 0 -12 3 -12 16 -2 13 10 13 9 6 -8 -4
-11 -9 -40 -10 -65 -1 -25 -3 -47 -4 -50 -1 -3 -3 -27 -5 -55 -1 -27 -5 -56
-9 -62 -5 -7 -4 -13 2 -13 5 0 5 -12 -2 -32 -10 -25 -9 -32 1 -36 10 -3 10 -9
-3 -28 -8 -13 -11 -24 -5 -24 5 0 10 -9 10 -19 0 -11 5 -23 11 -27 6 -3 8 -17
5 -30 -5 -19 -3 -22 11 -17 10 4 14 2 10 -4 -9 -14 10 -66 21 -59 5 3 9 0 9
-7 2 -34 10 -74 16 -84 4 -6 4 -18 1 -27 -7 -19 12 -22 20 -3 3 6 5 3 5 -8 -2
-38 1 -45 21 -45 13 0 20 7 20 20 0 11 -6 19 -12 17 -7 -1 -13 7 -13 18 -1 11
-6 19 -13 18 -8 -2 -10 7 -5 28 4 21 2 29 -7 27 -7 -2 -15 3 -18 11 -3 8 0 11
7 7 6 -4 11 -3 11 3 0 5 -5 11 -11 13 -7 2 -7 12 -1 29 6 15 7 31 1 40 -7 12
-9 12 -10 -1 -1 -8 -1 -22 0 -30 1 -11 -1 -11 -9 3 -6 9 -8 22 -4 29 4 7 3 8
-4 4 -16 -10 -15 7 1 23 8 9 8 12 0 7 -14 -8 -28 29 -17 46 5 8 2 9 -9 5 -14
-5 -17 0 -17 23 0 16 5 32 10 35 6 3 10 14 9 23 0 14 -2 13 -9 -3 -12 -29 -12
42 1 130 11 75 20 173 20 217 0 15 4 30 9 33 6 4 10 17 10 31 0 13 5 24 11 24
6 0 8 7 5 16 -3 8 1 28 9 45 20 37 9 37 -43 -1z m22 -5 c-4 -8 -11 -15 -16
-15 -6 0 -5 6 2 15 7 8 14 15 16 15 2 0 1 -7 -2 -15z"/>
<path d="M1696 2522 c-3 -5 3 -17 13 -26 11 -10 22 -13 25 -8 3 5 -3 17 -13
26 -11 10 -22 13 -25 8z"/>
<path d="M1125 2510 c-3 -5 -2 -10 4 -10 5 0 13 5 16 10 3 6 2 10 -4 10 -5 0
-13 -4 -16 -10z"/>
<path d="M1503 2507 c0 -8 6 -14 12 -14 6 0 12 6 12 14 0 7 -6 13 -12 13 -6 0
-12 -6 -12 -13z"/>
<path d="M1015 2500 c-4 -6 -3 -10 2 -9 4 1 15 0 23 -3 66 -23 92 -28 113 -23
13 4 41 -1 62 -9 43 -19 48 -19 41 -7 -4 5 0 12 6 14 7 3 2 5 -12 5 -14 0 -42
7 -63 16 -21 9 -43 14 -49 10 -16 -10 -89 -6 -104 6 -8 8 -14 8 -19 0z"/>
<path d="M981 2491 c-8 -5 -9 -11 -3 -15 5 -3 12 1 16 9 6 17 6 18 -13 6z"/>
<path d="M1398 2493 c7 -3 16 -2 19 1 4 3 -2 6 -13 5 -11 0 -14 -3 -6 -6z"/>
<path d="M1481 2494 c-1 -18 26 -37 34 -24 3 5 0 10 -9 10 -8 0 -17 6 -19 13
-4 7 -6 8 -6 1z"/>
<path d="M1760 2485 c-10 -12 -8 -13 10 -10 17 3 20 0 16 -12 -5 -12 -4 -13 7
-4 11 8 16 5 26 -15 13 -30 23 -29 15 2 -3 10 -18 27 -34 36 -24 14 -31 14
-40 3z"/>
<path d="M1037 2458 c2 -5 -7 -6 -21 -2 -15 3 -48 3 -74 -1 -40 -7 -43 -9 -22
-15 14 -3 37 -2 51 4 30 11 64 2 53 -15 -4 -8 -9 -7 -15 2 -7 11 -9 11 -9 1 0
-7 -4 -10 -10 -7 -5 3 -10 2 -10 -4 0 -11 -61 -33 -82 -30 -14 2 -68 -17 -68
-25 0 -7 40 6 45 14 3 5 20 4 38 -1 25 -7 37 -5 57 9 14 10 38 22 53 26 16 4
25 11 21 17 -4 6 0 15 7 20 19 12 32 11 24 -1 -8 -13 5 -13 25 0 13 9 13 10 0
11 -50 5 -68 4 -63 -3z"/>
<path d="M1530 2461 c0 -5 7 -15 17 -22 15 -13 15 -12 4 9 -12 23 -21 28 -21
13z"/>
<path d="M1485 2449 c-3 -3 3 -13 12 -20 12 -10 14 -10 9 -1 -4 6 -2 12 3 12
6 0 11 4 11 8 0 11 -29 11 -35 1z"/>
<path d="M1864 2439 c-8 -13 16 -60 27 -53 5 3 2 15 -6 28 -8 12 -12 26 -8 29
3 4 4 7 0 7 -3 0 -9 -5 -13 -11z"/>
<path d="M1307 2429 c7 -7 15 -10 18 -7 3 3 -2 9 -12 12 -14 6 -15 5 -6 -5z"/>
<path d="M1733 2415 c-6 -14 -7 -23 -2 -19 13 8 31 44 22 44 -4 0 -13 -11 -20
-25z"/>
<path d="M1530 2426 c0 -2 8 -10 18 -17 15 -13 16 -12 3 4 -13 16 -21 21 -21
13z"/>
<path d="M2211 2390 c-18 -16 -20 -20 -7 -20 10 0 14 -5 11 -10 -4 -6 -8 -23
-10 -38 -2 -15 -2 -21 1 -14 3 6 10 9 15 6 6 -3 5 -12 -2 -21 -9 -10 -9 -17
-2 -21 11 -8 27 -60 24 -81 -2 -8 2 -10 11 -5 10 6 10 5 2 -7 -6 -8 -9 -30 -7
-49 5 -41 5 -52 1 -108 -3 -23 -2 -45 1 -48 9 -8 10 -64 1 -59 -4 2 -7 -12 -6
-33 1 -43 19 -50 24 -9 2 15 6 27 10 27 4 0 7 14 7 30 0 17 -3 30 -6 30 -7 0
-4 115 5 128 3 6 3 13 -2 16 -5 3 -7 19 -4 37 4 25 2 30 -9 24 -11 -6 -11 -5
-3 4 9 10 8 27 -3 69 -8 31 -19 61 -24 66 -5 6 -4 16 4 25 9 11 9 13 0 8 -6
-4 -14 -3 -18 3 -3 5 1 10 9 10 9 0 16 4 16 10 0 5 6 8 13 6 6 -1 8 -1 3 2 -5
3 2 14 15 24 21 18 20 18 -15 -1 -41 -23 -57 -21 -36 4 17 20 10 18 -19 -5z"/>
<path d="M1163 2393 c9 -2 23 -2 30 0 6 3 -1 5 -18 5 -16 0 -22 -2 -12 -5z"/>
<path d="M1801 2368 c-14 -23 -14 -23 8 -4 22 20 25 26 13 26 -4 0 -13 -10
-21 -22z"/>
<path d="M1930 2385 c1 -16 28 -47 38 -44 5 2 -2 15 -14 29 -13 13 -24 20 -24
15z"/>
<path d="M900 2363 c-28 -11 -70 -45 -65 -53 3 -4 -2 -13 -10 -20 -20 -17 -20
-41 1 -33 11 4 12 8 4 13 -8 5 -8 10 -2 14 5 3 12 -1 15 -8 3 -8 -12 -35 -35
-61 l-40 -46 35 23 c36 24 67 68 67 97 0 9 14 32 31 49 30 31 30 37 -1 25z
m-42 -68 c-3 -3 -9 2 -12 12 -6 14 -5 15 5 6 7 -7 10 -15 7 -18z"/>
<path d="M995 2360 c-16 -7 -17 -9 -3 -9 9 -1 20 4 23 9 7 11 7 11 -20 0z"/>
<path d="M1036 2322 c-3 -5 1 -9 9 -9 8 0 12 4 9 9 -3 4 -7 8 -9 8 -2 0 -6 -4
-9 -8z"/>
<path d="M1887 2289 c7 -7 15 -10 18 -7 3 3 -2 9 -12 12 -14 6 -15 5 -6 -5z"/>
<path d="M1961 2264 c-25 -41 -24 -45 4 -33 11 4 14 8 7 8 -10 1 -9 8 3 31 22
42 11 38 -14 -6z"/>
<path d="M2288 2283 c7 -3 16 -2 19 1 4 3 -2 6 -13 5 -11 0 -14 -3 -6 -6z"/>
<path d="M1930 2270 c-9 -6 -10 -10 -3 -10 6 0 15 5 18 10 8 12 4 12 -15 0z"/>
<path d="M990 2249 c0 -5 5 -7 10 -4 6 3 10 8 10 11 0 2 -4 4 -10 4 -5 0 -10
-5 -10 -11z"/>
<path d="M1888 2253 c7 -3 16 -2 19 1 4 3 -2 6 -13 5 -11 0 -14 -3 -6 -6z"/>
<path d="M1180 2240 c0 -5 5 -10 10 -10 6 0 10 5 10 10 0 6 -4 10 -10 10 -5 0
-10 -4 -10 -10z"/>
<path d="M1750 2230 c0 -5 5 -10 11 -10 5 0 7 5 4 10 -3 6 -8 10 -11 10 -2 0
-4 -4 -4 -10z"/>
<path d="M2001 2194 c0 -11 3 -14 6 -6 3 7 2 16 -1 19 -3 4 -6 -2 -5 -13z"/>
<path d="M818 2186 c-19 -14 -25 -32 -8 -21 12 8 13 3 0 -29 -7 -20 -6 -24 6
-19 10 4 13 0 8 -13 -6 -15 -4 -17 6 -7 11 10 11 15 0 28 -10 12 -10 18 0 30
10 12 10 15 0 15 -10 0 -10 3 0 15 15 18 11 19 -12 1z"/>
<path d="M1000 2180 c0 -5 5 -10 10 -10 6 0 10 5 10 10 0 6 -4 10 -10 10 -5 0
-10 -4 -10 -10z"/>
<path d="M669 2123 c-13 -16 -12 -17 4 -4 9 7 17 15 17 17 0 8 -8 3 -21 -13z"/>
<path d="M1166 2115 c-3 -8 -1 -15 4 -15 6 0 10 7 10 15 0 8 -2 15 -4 15 -2 0
-6 -7 -10 -15z"/>
<path d="M2036 2098 c3 -4 9 -8 15 -8 5 0 9 4 9 8 0 5 -7 9 -15 9 -8 0 -12 -4
-9 -9z"/>
<path d="M653 2077 c-1 -11 -1 -18 0 -16 2 2 8 11 15 20 9 12 9 16 -1 16 -7 0
-14 -9 -14 -20z"/>
<path d="M1726 2083 c-6 -14 -5 -15 5 -6 7 7 10 15 7 18 -3 3 -9 -2 -12 -12z"/>
<path d="M796 2073 c-6 -14 -5 -15 5 -6 7 7 10 15 7 18 -3 3 -9 -2 -12 -12z"/>
<path d="M926 2067 c3 -10 9 -15 12 -12 3 3 0 11 -7 18 -10 9 -11 8 -5 -6z"/>
<path d="M1903 2045 c0 -8 4 -12 9 -9 5 3 6 10 3 15 -9 13 -12 11 -12 -6z"/>
<path d="M2054 2038 c4 -17 2 -28 -4 -28 -7 0 -8 -6 -1 -19 6 -10 8 -21 5 -24
-3 -3 -1 -21 5 -39 6 -19 13 -70 15 -113 2 -44 9 -132 16 -195 6 -63 10 -176
8 -251 -3 -136 4 -169 35 -169 5 0 2 9 -8 20 -10 11 -15 23 -11 27 4 4 11 1
16 -7 7 -11 10 -11 10 -2 0 7 -6 15 -13 18 -16 6 -14 163 3 194 5 10 10 28 10
40 0 12 4 19 9 16 4 -3 6 6 3 20 -3 18 -8 22 -17 14 -14 -12 -25 -3 -25 19 0
14 2 14 11 1 9 -12 10 -11 4 5 -10 29 -15 55 -20 105 -3 25 -8 65 -12 90 -4
25 -6 52 -5 61 2 9 -1 35 -7 58 -5 24 -5 43 0 47 5 3 9 11 9 17 0 7 -4 6 -10
-3 -11 -17 -11 -17 -14 62 0 25 -5 50 -10 55 -5 4 -6 -4 -2 -19z"/>
<path d="M800 2030 c-9 -16 -8 -20 6 -20 10 0 14 3 11 7 -4 3 -2 12 4 20 8 9
8 13 1 13 -6 0 -16 -9 -22 -20z"/>
<path d="M2285 2029 c-4 -6 -5 -12 -2 -15 2 -3 7 2 10 11 7 17 1 20 -8 4z"/>
<path d="M835 2020 c-3 -5 -1 -10 4 -10 6 0 11 5 11 10 0 6 -2 10 -4 10 -3 0
-8 -4 -11 -10z"/>
<path d="M665 1994 c-23 -36 -15 -37 13 -3 13 16 19 29 14 29 -5 0 -17 -12
-27 -26z"/>
<path d="M808 1983 c-2 -10 -3 -58 -3 -108 1 -56 -2 -93 -9 -97 -8 -6 -7 -11
3 -17 11 -7 10 -13 -4 -35 -13 -20 -14 -25 -3 -21 15 6 18 -31 3 -55 -6 -9 -4
-11 4 -6 9 6 11 -1 5 -31 -3 -21 -11 -43 -16 -50 -6 -7 -7 -41 -3 -80 3 -37 7
-96 8 -130 1 -33 5 -56 9 -50 9 15 2 -150 -7 -178 -6 -16 -5 -17 4 -5 8 11 11
12 11 2 0 -7 4 -11 9 -8 7 4 17 -50 23 -121 1 -7 5 -13 9 -13 5 0 6 -8 2 -17
-3 -10 -2 -14 2 -10 14 13 35 -72 25 -99 -6 -15 -6 -24 0 -24 6 0 10 7 10 15
0 8 5 15 10 15 10 0 13 -9 14 -50 1 -18 6 -25 19 -24 13 2 16 -3 11 -18 -4
-13 -2 -18 5 -14 6 4 13 -4 17 -19 3 -14 10 -25 15 -25 5 0 9 -11 9 -25 0 -15
5 -24 13 -22 6 1 11 -3 10 -10 -2 -6 6 -15 17 -18 12 -4 20 -15 20 -28 0 -18
2 -19 10 -7 7 11 10 7 10 -18 0 -19 4 -31 10 -27 5 3 6 13 3 22 -4 11 -3 14 5
9 15 -9 15 -39 0 -54 -9 -9 -9 -12 0 -12 7 0 12 4 12 10 0 5 6 9 13 7 6 -1 12
4 11 11 -1 6 -2 24 -2 38 -1 14 -5 23 -9 21 -5 -3 -14 1 -20 9 -8 8 -9 15 -3
19 6 3 10 11 10 18 0 6 -7 2 -15 -9 -12 -16 -16 -17 -24 -5 -5 8 -7 20 -4 28
9 23 -7 14 -18 -9 -9 -21 -9 -20 -4 5 5 25 -15 64 -27 52 -2 -2 -5 6 -5 18 -2
17 0 19 7 7 7 -10 10 -11 10 -2 0 7 -11 17 -24 22 -32 12 -46 39 -35 68 12 32
26 27 21 -8 -4 -26 -2 -29 14 -24 18 5 18 5 0 -10 -19 -16 -19 -16 3 -16 19 0
22 4 17 23 -3 12 -6 27 -6 32 0 6 -5 3 -11 -5 -8 -12 -10 -12 -8 5 1 11 -1 28
-5 37 -9 19 15 60 57 99 18 17 25 29 18 33 -6 4 -11 3 -11 -1 0 -5 -23 -33
-51 -62 -28 -29 -46 -50 -40 -47 17 11 13 -26 -6 -49 -15 -20 -15 -19 -10 5 6
26 -15 65 -27 52 -5 -4 -6 11 -5 33 3 33 0 39 -13 37 -16 -2 -28 20 -34 63 -1
11 -7 33 -13 48 -14 37 -14 57 0 37 9 -12 10 -12 5 3 -3 10 -6 21 -6 23 0 3
-5 2 -11 -2 -8 -4 -8 -1 -1 12 5 11 8 28 5 39 -2 11 -4 32 -4 48 0 15 -5 25
-10 21 -11 -6 -5 718 6 736 3 5 0 10 -8 10 -8 0 -17 -8 -19 -17z"/>
<path d="M1070 1966 c0 -2 7 -9 15 -16 9 -7 15 -8 15 -2 0 5 -7 12 -15 16 -8
3 -15 4 -15 2z"/>
<path d="M1865 1951 c-3 -5 1 -16 9 -23 12 -13 11 -16 -5 -26 -23 -15 -32 -15
-24 -2 4 6 -6 10 -22 10 -23 0 -25 -2 -13 -11 12 -9 11 -9 -5 -4 -11 4 -52 9
-91 10 l-72 2 -16 -34 c-9 -18 -12 -33 -8 -33 4 0 13 14 20 30 8 17 18 30 24
30 6 0 3 -11 -6 -25 -22 -34 -13 -45 27 -35 52 14 209 30 220 23 6 -3 7 -1 3
5 -4 7 -1 12 9 12 9 0 13 -4 10 -10 -3 -5 2 -10 12 -11 16 0 16 -1 -2 -9 -14
-7 -8 -8 19 -3 26 4 37 2 32 -5 -3 -6 3 -13 14 -17 11 -4 18 -10 16 -14 -3 -4
-1 -13 5 -21 7 -12 9 -10 9 7 0 12 -4 25 -10 28 -5 3 -10 15 -10 26 0 11 -5
17 -10 14 -6 -3 -14 5 -20 19 -12 32 -50 57 -81 54 -15 -2 -23 2 -21 10 2 14
-4 16 -13 3z m93 -49 c25 -32 11 -42 -25 -17 -14 10 -24 12 -28 5 -8 -13 -35
-13 -35 -1 0 5 9 13 20 16 11 4 17 11 14 17 -10 16 39 -2 54 -20z m-185 -9 c3
-5 -6 -9 -19 -9 -13 -1 -21 2 -18 7 6 11 31 12 37 2z m-99 -37 c-10 -8 -21
-12 -24 -10 -5 6 21 24 34 24 6 0 1 -6 -10 -14z"/>
<path d="M978 1933 c-8 -11 -7 -12 7 -7 13 5 16 4 11 -4 -4 -7 -15 -12 -24
-12 -10 0 -32 -16 -51 -35 -18 -19 -25 -32 -17 -29 12 5 15 2 10 -12 -10 -28
-35 -54 -46 -48 -12 7 -6 -19 7 -28 16 -12 30 -9 17 4 -15 15 25 58 56 58 13
0 32 4 42 10 30 16 211 16 240 0 23 -12 24 -12 11 3 -17 21 -3 22 23 2 24 -18
37 -19 33 -3 -2 13 -28 44 -34 41 -1 -1 -21 4 -44 12 -50 18 -103 20 -93 4 4
-7 1 -10 -7 -7 -8 3 -13 15 -11 27 3 18 -1 22 -15 19 -19 -4 -20 -9 -7 -43 4
-11 4 -17 -1 -13 -4 4 -13 4 -19 -2 -7 -5 -30 -13 -51 -19 -22 -5 -51 -13 -65
-17 -25 -7 -25 -7 3 16 26 21 27 23 10 37 -17 14 -17 14 0 9 11 -3 24 -3 30 1
22 14 47 13 47 -1 0 -17 -27 -29 -43 -20 -9 5 -9 4 -1 -5 8 -9 17 -9 37 0 32
14 43 39 19 40 -10 0 -12 3 -4 6 6 2 12 10 12 16 0 8 -4 7 -12 -1 -16 -16 -31
-15 -25 1 6 17 -31 17 -45 0z m-28 -68 c-7 -8 -17 -15 -22 -15 -6 0 -5 7 2 15
7 8 17 15 22 15 6 0 5 -7 -2 -15z"/>
<path d="M1810 1934 c-10 -11 -10 -14 1 -14 8 0 20 4 27 9 11 7 11 9 -1 14 -9
3 -21 -1 -27 -9z"/>
<path d="M1610 1889 c-7 -11 -10 -23 -7 -25 2 -2 9 7 15 21 14 30 7 33 -8 4z"/>
<path d="M1385 1870 c-3 -5 -1 -10 4 -10 6 0 11 5 11 10 0 6 -2 10 -4 10 -3 0
-8 -4 -11 -10z"/>
<path d="M1572 1840 c0 -14 2 -19 5 -12 2 6 2 18 0 25 -3 6 -5 1 -5 -13z"/>
<path d="M1323 1843 c-7 -2 -13 -11 -13 -19 0 -17 26 -8 34 12 6 14 0 16 -21
7z"/>
<path d="M2229 1845 c-4 -3 -5 -19 -3 -35 2 -17 0 -30 -4 -30 -5 0 -8 -24 -8
-52 1 -45 4 -53 21 -56 16 -3 17 -1 5 7 -12 9 -12 11 -1 11 11 0 11 3 1 15
-10 12 -10 15 1 15 9 0 10 3 3 8 -17 11 -13 42 5 43 10 0 12 2 4 6 -9 3 -10
10 -3 22 9 19 -9 59 -21 46z"/>
<path d="M1587 1819 c-4 -16 -3 -18 9 -8 7 6 11 15 8 20 -8 13 -11 11 -17 -12z"/>
<path d="M877 1816 c-4 -10 -1 -13 9 -9 7 3 14 9 14 14 0 14 -17 10 -23 -5z"/>
<path d="M1638 1769 c-16 -15 -28 -35 -28 -45 0 -14 8 -10 38 18 20 20 47 39
58 42 26 8 167 -20 205 -40 55 -28 38 -33 -28 -8 -52 20 -79 25 -115 20 -50
-5 -139 -44 -145 -62 -4 -11 62 -35 93 -33 14 1 13 3 -6 9 -25 8 -25 8 5 10
17 1 40 1 53 0 12 -1 22 4 22 11 0 8 6 7 18 -4 13 -12 21 -13 32 -6 12 9 11
10 -5 5 -19 -6 -19 -5 -2 8 9 7 17 19 17 25 0 7 6 11 13 8 6 -2 11 -11 9 -20
-2 -10 3 -14 16 -10 11 2 26 -3 35 -11 8 -9 22 -16 29 -16 10 0 9 3 -2 10 -13
8 -12 10 3 10 9 0 17 -4 17 -10 0 -5 10 -15 23 -21 22 -12 22 -12 3 10 -11 11
-16 21 -12 21 4 0 -13 17 -37 38 -36 31 -59 42 -124 56 -106 23 -151 19 -185
-15z m146 -54 c-23 -18 -34 -19 -34 -3 0 6 3 9 6 5 4 -3 13 1 21 9 9 8 18 12
21 9 3 -3 -3 -12 -14 -20z m-44 1 c0 -9 -14 -15 -40 -18 -47 -4 -52 4 -12 19
38 15 52 15 52 -1z"/>
<path d="M1275 1778 c46 -30 97 -91 91 -109 -20 -65 -20 -65 -4 -51 30 24 30
58 1 106 -15 24 -36 46 -47 49 -12 2 -30 7 -41 11 -20 7 -20 7 0 -6z"/>
<path d="M1046 1756 c-37 -13 -72 -29 -76 -37 -14 -22 -3 -22 27 0 15 12 62
28 103 37 68 14 86 14 142 2 10 -2 31 -17 48 -33 16 -16 32 -26 35 -23 7 7
-36 53 -63 67 -34 18 -141 12 -216 -13z"/>
<path d="M1578 1768 c-9 -7 -18 -24 -20 -38 -2 -14 -9 -24 -16 -22 -8 1 -11
-2 -6 -9 3 -6 1 -15 -6 -19 -10 -6 -6 -15 14 -33 25 -23 27 -30 21 -71 -7 -41
-5 -46 10 -40 11 5 13 9 5 14 -6 3 -8 14 -4 24 5 14 9 15 16 4 5 -8 6 -2 2 17
-4 17 -13 37 -21 46 -7 9 -11 27 -9 40 3 13 5 30 5 37 1 7 13 24 27 37 28 26
12 36 -18 13z"/>
<path d="M741 1734 c0 -11 3 -14 6 -6 3 7 2 16 -1 19 -3 4 -6 -2 -5 -13z"/>
<path d="M1075 1733 c-27 -8 -71 -30 -96 -49 -26 -19 -52 -34 -58 -34 -6 0
-11 -4 -11 -10 0 -5 4 -10 9 -10 17 0 71 22 71 30 0 14 41 19 46 5 3 -8 12
-11 20 -8 19 7 18 23 -2 23 -9 0 -14 5 -12 12 8 22 26 19 32 -5 6 -24 35 -33
48 -14 4 7 12 6 22 -2 9 -7 25 -11 36 -8 11 3 20 1 20 -4 0 -5 11 -9 24 -9 31
0 86 20 86 31 0 15 -94 57 -140 62 -25 2 -67 -2 -95 -10z m57 -25 c-6 -6 -15
-8 -19 -4 -4 4 -1 11 7 16 8 5 17 7 19 4 3 -2 -1 -10 -7 -16z m111 -2 c26 -20
21 -26 -22 -26 -34 0 -38 3 -34 20 6 23 30 25 56 6z m47 -20 c0 -3 -4 -8 -10
-11 -5 -3 -10 -1 -10 4 0 6 5 11 10 11 6 0 10 -2 10 -4z m-37 -23 c-7 -2 -19
-2 -25 0 -7 3 -2 5 12 5 14 0 19 -2 13 -5z"/>
<path d="M2180 1721 c0 -6 4 -13 10 -16 6 -3 7 1 4 9 -7 18 -14 21 -14 7z"/>
<path d="M781 1674 c0 -11 3 -14 6 -6 3 7 2 16 -1 19 -3 4 -6 -2 -5 -13z"/>
<path d="M1312 1656 c-11 -15 -25 -26 -32 -26 -6 0 -9 -4 -6 -9 5 -8 -32 -30
-79 -47 -17 -6 -14 -8 15 -13 20 -3 36 -2 38 4 2 6 18 21 36 34 30 23 61 69
52 78 -2 2 -13 -7 -24 -21z"/>
<path d="M1610 1659 c0 -34 94 -98 140 -94 14 1 27 -1 30 -5 3 -4 14 -4 25 0
16 6 10 9 -24 15 -65 11 -108 32 -141 68 -20 22 -30 27 -30 16z"/>
<path d="M2151 1654 c0 -11 3 -14 6 -6 3 7 2 16 -1 19 -3 4 -6 -2 -5 -13z"/>
<path d="M2203 1650 c6 -23 -3 -26 -22 -7 -10 10 -10 7 0 -16 13 -29 4 -51
-11 -27 -6 9 -8 1 -6 -23 2 -21 7 -41 11 -45 4 -4 6 2 5 13 -4 33 -1 38 15 25
17 -14 21 -45 4 -34 -8 5 -8 1 0 -14 15 -28 14 -79 -1 -85 -8 -3 -6 -6 5 -6
15 -1 17 9 17 85 0 53 -4 83 -10 79 -11 -7 -2 23 12 42 11 14 2 33 -14 33 -6
0 -8 -9 -5 -20z"/>
<path d="M852 1638 c1 -16 6 -28 10 -28 11 0 10 22 -2 40 -8 11 -9 9 -8 -12z"/>
<path d="M1435 1650 c-3 -6 1 -7 9 -4 18 7 21 14 7 14 -6 0 -13 -4 -16 -10z"/>
<path d="M771 1634 c0 -11 3 -14 6 -6 3 7 2 16 -1 19 -3 4 -6 -2 -5 -13z"/>
<path d="M1770 1641 c-21 -6 -22 -8 -8 -14 10 -3 20 -2 23 3 3 5 13 6 22 3 11
-4 14 -3 9 5 -8 13 -10 13 -46 3z"/>
<path d="M1878 1643 c7 -3 16 -2 19 1 4 3 -2 6 -13 5 -11 0 -14 -3 -6 -6z"/>
<path d="M1935 1630 c-3 -5 -1 -10 4 -10 6 0 11 5 11 10 0 6 -2 10 -4 10 -3 0
-8 -4 -11 -10z"/>
<path d="M970 1619 c0 -11 27 -12 34 -1 2 4 -4 9 -15 9 -10 1 -19 -2 -19 -8z"/>
<path d="M1195 1620 c-7 -12 2 -12 30 0 19 8 19 9 -2 9 -12 1 -25 -3 -28 -9z"/>
<path d="M1465 1620 c3 -5 11 -10 16 -10 6 0 7 5 4 10 -3 6 -11 10 -16 10 -6
0 -7 -4 -4 -10z"/>
<path d="M1145 1610 c-11 -5 -36 -9 -55 -10 -20 -2 -27 -4 -16 -7 26 -7 106 6
106 18 0 11 -8 11 -35 -1z"/>
<path d="M1510 1611 c0 -6 5 -13 10 -16 6 -3 10 1 10 9 0 9 -4 16 -10 16 -5 0
-10 -4 -10 -9z"/>
<path d="M1887 1614 c-12 -12 3 -22 24 -17 16 4 17 8 7 14 -16 10 -23 11 -31
3z"/>
<path d="M932 1594 c-12 -8 -22 -20 -22 -25 0 -6 7 -4 15 4 8 9 20 17 27 20 7
2 10 7 7 10 -3 4 -15 0 -27 -9z"/>
<path d="M694 1589 c-2 -4 10 -5 26 -4 29 2 30 1 31 -39 1 -22 4 -32 6 -21 3
11 9 25 15 32 6 7 5 14 -2 18 -6 3 -8 11 -4 16 3 6 -9 9 -31 7 -20 -1 -38 -5
-41 -9z"/>
<path d="M1323 1585 c0 -8 4 -12 9 -9 5 3 6 10 3 15 -9 13 -12 11 -12 -6z"/>
<path d="M1365 1589 c-9 -14 -2 -20 14 -10 8 6 9 11 3 15 -6 3 -14 1 -17 -5z"/>
<path d="M1770 1595 c0 -7 30 -13 34 -7 3 4 -4 9 -15 9 -10 1 -19 0 -19 -2z"/>
<path d="M1991 1597 c2 -1 13 -9 24 -17 19 -14 19 -14 6 3 -7 9 -18 17 -24 17
-6 0 -8 -1 -6 -3z"/>
<path d="M994 1581 c5 -8 56 -3 56 5 0 2 -14 4 -31 4 -16 0 -28 -4 -25 -9z"/>
<path d="M1840 1586 c0 -2 9 -6 20 -9 11 -3 18 -1 14 4 -5 9 -34 13 -34 5z"/>
<path d="M700 1560 c0 -5 7 -10 15 -10 8 0 15 5 15 10 0 6 -7 10 -15 10 -8 0
-15 -4 -15 -10z"/>
<path d="M1140 1550 c-12 -12 -26 -18 -33 -14 -9 5 -8 3 1 -7 10 -11 17 -9 39
14 15 15 24 27 20 27 -4 0 -16 -9 -27 -20z"/>
<path d="M1610 1560 c0 -5 5 -10 11 -10 5 0 7 5 4 10 -3 6 -8 10 -11 10 -2 0
-4 -4 -4 -10z"/>
<path d="M1840 1557 c0 -8 10 -17 22 -20 30 -8 30 -5 2 16 -19 14 -24 15 -24
4z"/>
<path d="M1340 1541 c0 -7 -4 -10 -9 -7 -4 3 -7 -6 -5 -20 1 -14 -7 -36 -22
-53 -47 -56 -56 -114 -24 -149 25 -27 58 -29 56 -4 -2 27 63 23 91 -6 25 -25
63 -22 98 8 29 25 63 34 80 20 10 -8 15 -9 15 -2 0 14 -33 32 -58 32 -10 0
-30 -13 -45 -29 -30 -34 -54 -32 -100 6 -16 12 -33 23 -38 23 -14 0 -53 -21
-60 -33 -13 -20 -39 2 -39 33 0 28 23 77 43 91 11 8 30 90 22 97 -3 3 -5 0 -5
-7z"/>
<path d="M710 1536 c0 -2 7 -7 16 -10 8 -3 12 -2 9 4 -6 10 -25 14 -25 6z"/>
<path d="M1597 1533 c-7 -11 17 -60 44 -89 15 -16 19 -32 17 -65 -3 -39 -7
-46 -43 -67 l-40 -24 35 6 c69 12 102 92 60 146 -11 14 -20 31 -20 38 0 7 -4
11 -9 8 -5 -3 -15 8 -24 25 -8 17 -17 27 -20 22z"/>
<path d="M1065 1520 c3 -5 8 -10 11 -10 2 0 4 5 4 10 0 6 -5 10 -11 10 -5 0
-7 -4 -4 -10z"/>
<path d="M1646 1522 c-3 -6 -1 -14 5 -17 14 -9 20 -2 10 14 -6 8 -11 9 -15 3z"/>
<path d="M1536 1493 c-4 -9 -3 -20 1 -24 4 -4 9 3 9 17 2 28 -1 31 -10 7z"/>
<path d="M1940 1500 c0 -5 5 -10 11 -10 5 0 7 5 4 10 -3 6 -8 10 -11 10 -2 0
-4 -4 -4 -10z"/>
<path d="M2187 1470 c-3 -11 -1 -20 4 -20 5 0 9 9 9 20 0 11 -2 20 -4 20 -2 0
-6 -9 -9 -20z"/>
<path d="M1405 1470 c3 -5 8 -10 11 -10 2 0 4 5 4 10 0 6 -5 10 -11 10 -5 0
-7 -4 -4 -10z"/>
<path d="M1568 1473 c7 -3 16 -2 19 1 4 3 -2 6 -13 5 -11 0 -14 -3 -6 -6z"/>
<path d="M2030 1476 c0 -2 8 -10 18 -17 15 -13 16 -12 3 4 -13 16 -21 21 -21
13z"/>
<path d="M1995 1450 c10 -11 20 -20 23 -20 3 0 -3 9 -13 20 -10 11 -20 20 -23
20 -3 0 3 -9 13 -20z"/>
<path d="M2992 1395 c-7 -247 -112 -541 -275 -772 -79 -111 -229 -261 -340
-340 -131 -92 -414 -229 -434 -209 -3 3 1 6 10 6 24 0 21 26 -5 44 -32 22 -39
20 -28 -10 17 -45 0 -59 -97 -79 -48 -10 -133 -21 -188 -25 -100 -7 -100 -7
48 -8 81 0 149 3 151 7 3 4 19 8 38 9 18 2 43 9 55 17 12 8 31 15 42 15 11 0
32 5 48 12 15 6 33 12 40 14 59 12 304 152 375 214 9 8 31 26 49 40 52 39 141
129 199 200 94 114 162 230 235 399 32 76 45 118 76 246 5 22 8 99 6 170 -2
84 -3 102 -5 50z"/>
<path d="M2 1330 c-1 -110 2 -147 18 -198 11 -35 23 -78 26 -95 3 -18 9 -36
15 -41 5 -6 9 -17 9 -25 0 -8 29 -73 64 -145 57 -117 132 -234 206 -320 42
-50 163 -167 200 -195 19 -14 37 -28 40 -32 17 -19 187 -123 250 -152 216
-102 324 -128 515 -125 68 1 90 3 50 5 -38 1 -102 8 -142 14 l-72 12 -26 54
c-23 46 -25 56 -13 70 12 15 11 15 -9 5 -12 -7 -25 -17 -28 -22 -11 -18 5 -65
25 -78 16 -10 18 -9 13 5 -4 11 -3 14 5 9 14 -9 16 -36 3 -36 -33 0 -238 78
-331 125 -149 76 -266 161 -380 276 -122 122 -206 241 -286 404 -89 183 -139
370 -147 555 -2 36 -4 4 -5 -70z"/>
<path d="M2157 1397 c5 -59 3 -72 -15 -97 -15 -20 -18 -30 -9 -33 12 -4 37 43
37 70 0 8 9 26 20 40 26 33 26 53 0 22 l-19 -24 -1 25 c-1 14 -5 34 -10 45 -5
12 -6 -7 -3 -48z"/>
<path d="M754 1428 c3 -14 9 -34 13 -44 4 -11 3 -15 -4 -11 -7 5 -9 0 -6 -13
3 -11 9 -20 14 -20 15 0 10 56 -7 86 l-16 29 6 -27z"/>
<path d="M1360 1430 c0 -5 5 -10 11 -10 5 0 7 5 4 10 -3 6 -8 10 -11 10 -2 0
-4 -4 -4 -10z"/>
<path d="M1617 1433 c-10 -9 -9 -23 2 -23 5 0 11 7 15 15 5 15 -5 20 -17 8z"/>
<path d="M849 1403 c-13 -16 -12 -17 4 -4 9 7 17 15 17 17 0 8 -8 3 -21 -13z"/>
<path d="M1955 1410 c3 -5 8 -10 11 -10 2 0 4 5 4 10 0 6 -5 10 -11 10 -5 0
-7 -4 -4 -10z"/>
<path d="M2000 1349 c0 -11 4 -18 10 -14 5 3 7 12 3 20 -7 21 -13 19 -13 -6z"/>
<path d="M851 1344 c0 -11 3 -14 6 -6 3 7 2 16 -1 19 -3 4 -6 -2 -5 -13z"/>
<path d="M772 1310 c0 -14 2 -19 5 -12 2 6 2 18 0 25 -3 6 -5 1 -5 -13z"/>
<path d="M865 1319 c-4 -6 -5 -12 -2 -15 2 -3 7 2 10 11 7 17 1 20 -8 4z"/>
<path d="M2047 1323 c-10 -9 -9 -23 1 -23 5 0 9 7 9 15 0 17 -1 18 -10 8z"/>
<path d="M1940 1311 c0 -5 7 -11 15 -15 8 -3 15 -1 15 3 0 5 -7 11 -15 15 -8
3 -15 1 -15 -3z"/>
<path d="M1553 1273 c7 -37 3 -40 -20 -18 -20 21 -28 12 -13 -15 6 -12 14 -19
18 -16 3 4 12 -4 19 -16 7 -13 12 -17 13 -9 0 11 3 11 15 1 8 -6 19 -9 25 -5
5 3 10 1 10 -5 0 -6 5 -8 12 -4 6 4 17 -1 25 -11 9 -14 13 -15 13 -4 0 12 2
12 9 0 5 -8 18 -15 29 -16 17 -1 18 1 9 16 -6 10 -13 17 -16 17 -25 -2 -41 5
-41 18 0 14 1 14 16 0 19 -20 24 -20 24 -2 0 8 -9 17 -19 21 -11 3 -23 14 -26
25 -3 10 -13 21 -21 24 -8 3 -12 2 -9 -4 12 -19 -29 -10 -53 13 l-25 22 6 -32z
m44 -26 c11 4 14 2 9 -5 -4 -7 -2 -12 4 -12 6 0 13 7 16 15 8 19 24 10 24 -13
0 -15 -2 -15 -10 -2 -9 13 -14 7 -11 -12 1 -11 -4 -10 -34 4 -14 6 -25 18 -24
27 0 10 3 11 5 4 3 -7 12 -9 21 -6z"/>
<path d="M1995 1290 c4 -7 3 -15 -3 -19 -6 -4 -5 -10 3 -18 10 -9 13 -6 13 13
0 13 -5 27 -11 31 -6 4 -7 1 -2 -7z"/>
<path d="M1355 1280 c-11 -4 -27 -5 -35 -2 -8 3 -6 -2 5 -11 14 -11 24 -12 32
-5 8 6 13 7 13 1 0 -5 -12 -15 -26 -22 -22 -10 -25 -9 -21 3 3 8 -2 16 -13 19
-11 3 -18 0 -17 -7 1 -6 -5 -11 -13 -11 -14 0 -42 -26 -36 -33 2 -1 16 4 32
12 30 16 45 7 39 -24 -2 -10 4 -16 16 -16 10 0 19 4 19 9 0 5 8 6 19 2 22 -7
36 9 45 50 7 28 6 29 -7 10 -9 -11 -13 -24 -10 -29 4 -5 1 -6 -5 -2 -7 4 -12
3 -12 -2 0 -5 -12 -9 -27 -9 -26 0 -25 0 10 18 20 11 37 26 37 35 0 8 -4 13
-9 10 -5 -4 -11 -2 -13 3 -1 4 -12 5 -23 1z"/>
<path d="M897 1273 c-4 -3 -7 -18 -7 -31 0 -32 11 -23 14 12 3 28 3 30 -7 19z"/>
<path d="M930 1269 c0 -5 9 -9 20 -9 11 0 20 2 20 4 0 2 -9 6 -20 9 -11 3 -20
1 -20 -4z"/>
<path d="M1690 1260 c0 -6 -4 -8 -10 -5 -5 3 -10 1 -10 -4 0 -6 5 -12 10 -12
6 -1 16 -2 23 -3 6 0 12 -14 12 -29 1 -29 18 -47 47 -47 9 0 20 -5 23 -10 4
-6 10 -8 14 -6 4 3 13 1 20 -3 10 -6 9 -11 -3 -24 -14 -13 -14 -16 0 -21 8 -3
12 -1 9 4 -3 5 3 18 14 29 11 11 16 23 11 26 -6 4 -10 1 -10 -5 0 -7 -7 -7
-22 2 -13 6 -29 13 -36 14 -8 1 -17 6 -20 10 -4 4 1 4 11 1 9 -4 17 -2 17 3 0
6 -4 10 -9 10 -5 0 -17 3 -25 6 -13 5 -15 2 -10 -12 8 -20 6 -19 -16 10 -10
13 -10 17 -2 12 21 -12 13 10 -13 38 -14 15 -25 22 -25 16z"/>
<path d="M2037 1260 c6 -7 9 -18 7 -24 -3 -7 6 -21 18 -32 21 -17 21 -17 8 0
-8 10 -14 28 -15 39 0 11 -7 22 -15 25 -12 3 -12 2 -3 -8z"/>
<path d="M2071 1250 c0 -15 5 -32 12 -39 10 -10 9 -15 -3 -24 -9 -7 -15 -19
-15 -27 1 -8 -4 -21 -9 -29 -8 -11 -8 -13 2 -7 16 9 15 6 -4 -32 -20 -40 -28
-41 -22 -2 5 35 -9 40 -21 8 -6 -16 -4 -25 4 -30 7 -5 11 -18 9 -30 -4 -21 -4
-22 5 -3 5 11 10 16 11 10 0 -5 9 8 18 30 11 24 21 35 25 28 4 -6 3 -14 -3
-18 -6 -4 -7 -11 -4 -17 5 -7 2 -8 -6 -3 -10 6 -11 2 -6 -19 4 -17 3 -25 -3
-22 -5 3 -9 -10 -9 -30 0 -20 -5 -41 -11 -47 -8 -8 -10 -2 -5 23 5 25 3 32 -4
25 -6 -5 -13 -24 -16 -42 -5 -25 -2 -33 11 -36 11 -3 7 -5 -9 -6 -21 -1 -28
-6 -28 -20 0 -11 -5 -23 -11 -27 -8 -4 -7 -9 2 -14 10 -7 9 -15 -4 -42 -9 -18
-20 -33 -24 -33 -4 0 -9 -14 -10 -31 -1 -20 3 -31 12 -31 7 0 11 6 8 13 -2 6
0 15 6 19 7 4 11 -10 11 -42 0 -27 4 -53 10 -59 8 -8 34 -144 32 -169 -3 -41
-14 -88 -29 -121 -9 -21 -17 -41 -18 -44 -1 -3 -5 -17 -9 -33 -5 -15 -12 -27
-17 -27 -5 0 -9 -7 -9 -15 0 -8 -6 -14 -12 -12 -7 1 -12 -4 -10 -12 2 -7 -5
-22 -14 -32 -10 -11 -14 -22 -11 -26 17 -16 92 118 132 232 l33 95 -25 83
c-14 45 -26 89 -28 97 -1 8 -5 26 -8 40 -13 50 -15 90 -6 90 6 0 7 5 3 12 -5
8 -2 9 9 5 14 -5 16 -2 11 20 -5 18 -3 24 4 19 8 -5 10 -2 6 8 -3 9 -2 16 4
16 6 0 13 15 17 33 4 17 13 41 20 52 11 18 31 110 27 128 -1 4 3 7 9 7 5 0 7
4 4 10 -3 5 1 20 10 33 8 13 12 27 8 30 -3 4 0 7 7 7 8 0 1 14 -17 33 -17 17
-33 41 -36 52 -4 16 -5 15 -6 -5z m32 -96 c7 1 9 1 4 -1 -4 -3 -4 -9 -1 -15 4
-6 -3 -5 -15 2 -12 6 -19 16 -14 23 5 8 8 8 10 0 3 -7 10 -11 16 -9z m-104
-298 c-9 -8 -10 -7 -5 7 3 10 7 24 7 30 1 7 3 4 6 -7 3 -10 -1 -23 -8 -30z"/>
<path d="M1963 1243 c10 -11 19 -42 21 -72 3 -29 8 -56 12 -60 4 -3 4 14 0 39
-6 42 -6 44 8 25 9 -11 16 -15 16 -9 0 6 -7 17 -15 24 -8 7 -15 21 -15 31 0
10 -10 24 -22 30 -22 12 -22 11 -5 -8z"/>
<path d="M930 1230 c-8 -11 -20 -20 -27 -20 -7 0 -13 -12 -13 -26 0 -22 2 -25
15 -14 8 7 15 17 15 23 0 6 7 19 17 29 9 10 14 20 12 23 -3 2 -11 -4 -19 -15z"/>
<path d="M1055 1199 c-30 -55 -50 -149 -21 -99 8 14 12 28 9 32 -2 5 2 11 11
14 8 3 13 13 10 22 -3 9 2 6 11 -8 14 -23 15 -23 10 -3 -4 16 0 25 15 33 17 9
20 8 20 -11 0 -12 -6 -30 -14 -38 -8 -9 -17 -28 -20 -43 -5 -29 -34 -78 -46
-78 -4 0 -10 -9 -13 -21 -5 -18 -3 -18 20 5 14 14 29 24 33 21 4 -2 16 2 26
10 10 8 14 15 9 15 -6 0 -16 -5 -23 -12 -7 -7 -12 -9 -12 -5 0 6 21 57 27 66
1 2 17 -13 36 -33 19 -19 31 -39 28 -42 -3 -4 -1 -4 5 -1 6 4 19 0 30 -7 15
-12 16 -16 5 -29 -10 -13 -9 -18 10 -27 12 -7 19 -8 15 -2 -10 16 19 32 50 28
16 -2 43 -9 59 -16 17 -7 42 -12 58 -11 15 1 27 -3 27 -9 0 -16 27 -12 34 6
10 27 7 37 -8 25 -14 -12 -60 -6 -81 9 -12 9 -103 24 -125 21 -8 -1 -23 11
-32 26 -13 22 -18 24 -18 10 0 -10 -4 -16 -9 -13 -10 7 -3 46 9 46 4 0 12 -10
18 -22 l11 -23 0 23 c1 28 21 19 21 -9 0 -10 5 -19 11 -19 5 0 9 10 7 23 -2
16 3 23 20 25 12 2 22 0 21 -5 -4 -24 4 -34 10 -13 7 23 11 25 61 21 30 -2 62
-4 70 -6 8 -1 42 1 75 5 54 7 62 5 78 -14 12 -13 17 -15 14 -6 -3 11 3 16 20
18 23 2 25 -1 19 -29 -3 -17 -6 -35 -6 -39 0 -5 -16 -9 -35 -9 -57 -3 -65 -4
-65 -12 0 -5 -16 -11 -35 -15 -43 -8 -50 -17 -28 -35 12 -10 14 -10 9 -1 -5 8
1 12 23 12 16 0 32 4 35 9 3 5 18 12 32 15 19 5 30 2 40 -11 13 -17 14 -17 8
2 -6 16 -5 18 7 8 18 -17 34 -16 20 1 -9 11 -7 15 11 20 33 8 40 7 33 -4 -3
-5 -1 -10 4 -10 6 0 10 8 8 18 -1 9 3 17 8 17 6 0 10 -8 9 -17 0 -10 3 -18 8
-18 12 0 10 38 -2 45 -6 4 -8 11 -4 16 3 5 10 7 15 4 5 -4 9 1 9 9 0 8 8 19
17 25 32 17 4 25 -87 23 -54 -1 -90 3 -90 9 0 6 -7 6 -19 -1 -26 -13 -81 -13
-81 1 0 5 -10 3 -22 -5 -26 -18 -103 -21 -114 -5 -4 7 -20 8 -41 4 -22 -4 -40
-2 -51 7 -13 11 -15 11 -10 -3 6 -15 -1 -16 -48 -14 -51 3 -53 2 -44 -16 12
-22 5 -25 -14 -6 -24 24 -26 47 -6 64 11 10 20 24 21 33 0 10 2 11 6 2 2 -6 9
-10 14 -6 13 8 11 -10 -3 -26 -10 -11 -9 -11 3 0 9 8 20 26 24 40 4 17 3 21
-3 12 -7 -11 -12 -10 -26 3 -21 22 -21 22 15 17 27 -4 30 -8 27 -32 l-4 -28
37 20 c40 21 60 50 31 45 -9 -1 -23 -6 -30 -11 -22 -13 -38 10 -21 30 12 16
12 17 -1 9 -24 -15 -60 -17 -60 -3 0 24 -19 -7 -25 -41 -7 -40 -18 -63 -39
-81 -24 -19 -19 4 4 25 13 12 18 25 14 38 -5 15 -3 17 7 11 12 -6 12 -5 0 9
-9 11 -10 17 -2 17 6 0 11 4 11 8 0 5 -7 9 -15 9 -8 0 -12 -3 -10 -6 2 -4 -10
-14 -27 -24 l-31 -18 17 25 c18 28 20 36 8 36 -5 0 -21 -23 -37 -51z m702
-126 c-9 -9 -19 -14 -23 -11 -10 10 6 28 24 28 15 0 15 -1 -1 -17z m-57 -22
c0 -18 -6 -31 -16 -35 -24 -9 -26 -4 -13 32 14 40 29 41 29 3z m23 14 c4 -8 2
-17 -3 -20 -6 -4 -10 3 -10 14 0 25 6 27 13 6z m-483 -80 c-7 -9 -15 -13 -17
-11 -7 7 7 26 19 26 6 0 6 -6 -2 -15z"/>
<path d="M1425 1232 c-8 -21 -6 -34 5 -27 6 3 7 -1 4 -9 -5 -13 1 -16 30 -16
20 0 36 5 36 11 0 6 7 9 15 5 14 -5 13 -2 0 24 -16 31 -32 42 -21 15 3 -8 1
-15 -5 -15 -6 0 -9 -7 -5 -15 7 -19 1 -19 -19 1 -12 12 -13 19 -5 29 9 11 7
14 -9 12 -11 -1 -23 -7 -26 -15z"/>
<path d="M1750 1230 c8 -5 11 -10 5 -10 -5 0 1 -7 14 -14 31 -17 57 -10 40 10
-15 18 -35 19 -23 1 5 -7 2 -5 -8 5 -9 10 -22 18 -30 18 -10 0 -9 -3 2 -10z"/>
<path d="M1820 1232 c0 -5 7 -9 15 -9 8 0 12 4 9 9 -3 4 -9 8 -15 8 -5 0 -9
-4 -9 -8z"/>
<path d="M985 1210 c-3 -5 -1 -10 4 -10 6 0 11 5 11 10 0 6 -2 10 -4 10 -3 0
-8 -4 -11 -10z"/>
<path d="M1861 1202 c-1 -7 -5 -10 -11 -7 -12 7 -54 -14 -46 -23 13 -13 35
-10 29 4 -10 27 5 14 29 -23 12 -21 21 -44 20 -52 -2 -8 2 -18 10 -22 20 -13
34 -11 20 3 -24 24 -14 37 18 25 33 -12 43 -29 33 -54 -5 -13 -8 -12 -15 8 -7
19 -11 21 -18 9 -5 -9 -5 -19 1 -26 5 -7 9 -16 8 -20 -4 -23 2 -45 11 -39 5 3
7 12 4 20 -3 8 3 27 13 42 19 27 20 69 2 58 -5 -4 -9 1 -9 10 0 9 5 13 11 9 8
-4 8 0 0 15 -16 29 -29 27 -23 -4 2 -15 0 -25 -7 -25 -14 0 -52 43 -67 78 -7
15 -13 21 -13 14z"/>
<path d="M971 1174 c0 -11 3 -14 6 -6 3 7 2 16 -1 19 -3 4 -6 -2 -5 -13z"/>
<path d="M866 1163 c-6 -14 -5 -15 5 -6 7 7 10 15 7 18 -3 3 -9 -2 -12 -12z"/>
<path d="M923 1154 c-9 -19 -8 -24 2 -24 16 0 26 23 16 38 -4 6 -11 1 -18 -14z"/>
<path d="M1095 1170 c3 -5 8 -10 11 -10 2 0 4 5 4 10 0 6 -5 10 -11 10 -5 0
-7 -4 -4 -10z"/>
<path d="M2022 1149 c-7 -11 -8 -19 -2 -19 5 0 10 5 10 11 0 5 5 7 10 4 6 -3
10 -2 10 4 0 19 -16 19 -28 0z"/>
<path d="M1351 1146 c-9 -10 -8 -15 2 -19 8 -3 13 3 14 14 2 23 -1 24 -16 5z"/>
<path d="M1486 1143 c-6 -14 -5 -15 5 -6 7 7 10 15 7 18 -3 3 -9 -2 -12 -12z"/>
<path d="M876 1139 c-14 -45 -14 -70 0 -98 8 -17 13 -35 10 -40 -3 -5 1 -11 9
-15 16 -6 20 -2 29 37 4 19 3 26 -4 22 -5 -3 -10 -18 -11 -33 0 -24 -1 -25 -9
-6 -4 11 -5 39 0 62 4 24 3 45 -1 48 -5 3 -9 -6 -9 -20 0 -14 -4 -28 -10 -31
-13 -8 -13 1 0 44 9 33 6 60 -4 30z"/>
<path d="M945 1124 c-9 -15 -13 -30 -8 -35 5 -5 13 7 19 26 13 42 12 43 -11 9z"/>
<path d="M1765 1130 c10 -11 20 -20 23 -20 3 0 -3 9 -13 20 -10 11 -20 20 -23
20 -3 0 3 -9 13 -20z"/>
<path d="M1053 1110 c-3 -17 -10 -33 -14 -36 -5 -3 -9 -10 -9 -17 0 -7 5 -6
14 3 13 15 30 80 21 80 -3 0 -8 -14 -12 -30z"/>
<path d="M1841 1103 c1 -23 2 -24 6 -6 3 15 9 20 21 17 15 -5 15 -4 2 5 -24
17 -30 13 -29 -16z"/>
<path d="M962 1089 c-10 -15 -16 -18 -26 -10 -13 11 -26 5 -26 -12 0 -5 7 -7
15 -4 19 8 31 -11 16 -26 -14 -14 -14 -27 0 -27 5 0 7 5 4 10 -3 6 1 10 9 10
23 0 19 -25 -6 -43 -13 -8 -19 -19 -15 -23 4 -5 19 5 32 21 l23 30 -5 -27 c-3
-15 -11 -33 -19 -39 -16 -13 -19 -39 -4 -39 6 0 10 7 10 15 0 8 5 15 10 15 6
0 10 9 10 21 0 11 4 18 9 15 5 -4 7 3 4 14 -3 11 -10 23 -15 26 -5 3 -4 12 3
20 8 10 8 14 0 14 -6 0 -11 -5 -11 -11 0 -5 -4 -7 -10 -4 -16 10 -12 29 10 53
14 14 16 22 8 22 -7 0 -19 -9 -26 -21z"/>
<path d="M1841 1065 c-13 -19 -28 -32 -34 -28 -6 4 -7 1 -3 -6 5 -7 11 -10 14
-7 3 3 11 1 19 -6 12 -10 13 -7 8 18 -4 19 2 11 20 -24 25 -49 26 -72 4 -72
-5 0 -16 15 -25 33 -9 19 -22 34 -30 34 -18 0 -18 -4 6 -30 25 -26 22 -53 -5
-49 -20 3 -20 2 -1 -13 11 -8 26 -15 33 -15 7 0 13 -3 14 -7 1 -5 2 -21 4 -38
4 -44 4 -45 16 -45 5 0 7 5 4 10 -3 6 -1 10 6 10 8 0 7 5 -3 18 -9 9 -13 22
-11 29 2 6 -6 18 -18 27 l-23 16 33 11 c29 10 32 14 25 38 -4 14 -8 37 -9 51
0 14 -4 32 -7 40 -4 8 -8 21 -10 27 -2 7 -14 -3 -27 -22z"/>
<path d="M1366 1055 c4 -8 8 -15 10 -15 2 0 4 7 4 15 0 8 -4 15 -10 15 -5 0
-7 -7 -4 -15z"/>
<path d="M1540 1050 c0 -11 2 -20 4 -20 2 0 6 9 9 20 3 11 1 20 -4 20 -5 0 -9
-9 -9 -20z"/>
<path d="M1450 1051 c0 -6 5 -13 10 -16 6 -3 10 1 10 9 0 9 -4 16 -10 16 -5 0
-10 -4 -10 -9z"/>
<path d="M1999 1038 c-5 -48 -7 -58 -13 -75 -6 -14 -5 -15 5 -6 12 12 23 93
13 93 -2 0 -5 -6 -5 -12z"/>
<path d="M1100 1016 c0 -2 7 -6 15 -10 8 -3 15 -1 15 4 0 6 -7 10 -15 10 -8 0
-15 -2 -15 -4z"/>
<path d="M1907 1006 c-4 -10 -3 -15 3 -11 7 4 9 -12 6 -46 -3 -29 -9 -55 -15
-58 -6 -4 -7 -12 -1 -21 8 -13 10 -12 10 3 0 9 5 17 11 17 6 0 8 7 5 16 -4 10
-1 14 6 11 7 -2 13 -14 12 -26 -1 -24 26 -26 34 -2 3 8 0 11 -7 7 -6 -4 -11
-1 -11 8 0 8 5 18 10 21 7 5 8 11 1 19 -6 7 -6 17 -1 26 16 25 11 36 -6 12 -9
-13 -13 -31 -9 -43 5 -15 3 -20 -6 -17 -7 2 -14 18 -15 36 -1 17 -7 38 -12 48
-8 15 -9 15 -15 0z"/>
<path d="M1070 1000 c0 -5 7 -10 16 -10 8 0 12 5 9 10 -3 6 -10 10 -16 10 -5
0 -9 -4 -9 -10z"/>
<path d="M1180 1000 c0 -5 4 -10 9 -10 6 0 13 5 16 10 3 6 -1 10 -9 10 -9 0
-16 -4 -16 -10z"/>
<path d="M1846 1002 c-3 -6 -1 -14 5 -17 14 -9 20 -2 10 14 -6 8 -11 9 -15 3z"/>
<path d="M1063 965 c-7 -8 -13 -17 -13 -20 0 -4 -7 -13 -15 -21 -8 -9 -15 -21
-15 -27 0 -8 4 -7 9 2 5 8 21 14 37 15 15 1 29 7 32 14 3 11 0 12 -15 4 -15
-9 -20 -8 -20 4 0 14 10 18 35 15 18 -3 15 16 -4 23 -19 7 -16 8 -31 -9z"/>
<path d="M1150 964 c0 -8 5 -12 10 -9 6 4 8 11 5 16 -9 14 -15 11 -15 -7z"/>
<path d="M1788 973 c7 -3 16 -2 19 1 4 3 -2 6 -13 5 -11 0 -14 -3 -6 -6z"/>
<path d="M1688 959 c-19 -11 -24 -29 -8 -29 5 0 14 9 20 20 12 23 12 23 -12 9z"/>
<path d="M1755 960 c3 -5 14 -10 23 -10 15 0 15 2 2 10 -20 13 -33 13 -25 0z"/>
<path d="M1805 950 c3 -5 10 -10 16 -10 5 0 9 5 9 10 0 6 -7 10 -16 10 -8 0
-12 -4 -9 -10z"/>
<path d="M1732 939 c-31 -12 -28 -14 18 -14 22 0 40 3 40 6 0 12 -35 16 -58 8z"/>
<path d="M1140 930 c0 -5 7 -7 15 -4 8 4 15 8 15 10 0 2 -7 4 -15 4 -8 0 -15
-4 -15 -10z"/>
<path d="M1440 930 c-23 -7 -23 -8 -3 -9 12 -1 25 4 28 9 3 6 5 10 3 9 -2 -1
-14 -5 -28 -9z"/>
<path d="M1618 918 c4 -18 2 -20 -14 -14 -15 6 -16 5 -7 -5 9 -9 19 -9 43 1
25 10 28 15 18 27 -10 13 -13 12 -19 -4 -7 -16 -8 -16 -8 0 -1 9 -5 17 -10 17
-5 0 -7 -10 -3 -22z"/>
<path d="M1073 898 c-18 -6 -33 -14 -33 -19 0 -9 40 0 57 14 7 5 20 7 28 3 9
-3 13 -2 10 4 -7 12 -19 11 -62 -2z"/>
<path d="M1243 903 c-7 -2 -13 -11 -13 -19 0 -7 6 -11 13 -8 8 3 14 11 14 19
0 8 -1 15 -1 14 -1 0 -7 -3 -13 -6z"/>
<path d="M1315 901 c-3 -5 -1 -12 5 -16 5 -3 10 1 10 9 0 18 -6 21 -15 7z"/>
<path d="M1570 897 c0 -11 -4 -15 -12 -11 -7 4 -8 3 -4 -4 8 -13 36 -16 36 -4
0 4 -5 14 -10 22 -8 13 -10 12 -10 -3z"/>
<path d="M1762 905 c4 -4 3 -16 -3 -26 -5 -11 -7 -19 -5 -19 3 0 10 9 16 19 7
15 7 22 -2 27 -7 4 -10 4 -6 -1z"/>
<path d="M1195 890 c-3 -5 1 -10 10 -10 9 0 13 5 10 10 -3 6 -8 10 -10 10 -2
0 -7 -4 -10 -10z"/>
<path d="M1340 890 c0 -5 5 -10 11 -10 5 0 7 5 4 10 -3 6 -8 10 -11 10 -2 0
-4 -4 -4 -10z"/>
<path d="M1809 887 c12 -15 12 -17 -3 -11 -9 3 -16 3 -16 -1 0 -14 21 -45 32
-45 7 0 6 5 -2 15 -10 12 -10 15 3 15 8 0 18 -6 21 -12 3 -7 5 -5 3 6 -1 10
-13 26 -27 35 -24 15 -24 15 -11 -2z"/>
<path d="M1009 876 c7 -8 9 -21 5 -27 -5 -8 -3 -9 6 -4 9 5 10 2 5 -14 -5 -17
-3 -20 11 -14 11 4 15 2 11 -4 -4 -6 -1 -10 6 -9 6 0 13 -3 14 -9 0 -5 -3 -9
-8 -7 -5 1 -9 -8 -9 -21 0 -13 -5 -28 -11 -34 -8 -8 -6 -14 8 -22 16 -8 24 -6
40 8 16 15 23 16 41 7 19 -10 20 -14 8 -36 -8 -17 -10 -37 -4 -65 12 -55 18
-56 14 -1 -1 25 0 44 2 41 3 -3 12 1 20 8 13 10 15 9 9 -6 -6 -16 -5 -16 18
-1 14 9 25 22 25 29 0 7 7 16 16 19 26 10 28 7 10 -13 -14 -15 -15 -21 -4 -27
7 -4 10 -4 6 1 -4 4 -2 15 4 23 18 22 19 42 0 35 -11 -5 -13 -2 -8 8 4 8 -2 2
-14 -14 -12 -15 -27 -24 -32 -21 -6 4 -8 2 -5 -3 4 -6 -4 -13 -16 -15 -28 -6
-33 19 -5 28 10 3 18 13 17 22 0 11 -3 12 -6 5 -2 -7 -9 -13 -14 -13 -6 0 -7
4 -4 10 4 6 -1 7 -12 3 -15 -5 -14 -1 5 19 26 28 13 43 -21 26 -10 -5 -21 -7
-24 -4 -3 3 6 11 21 17 26 12 34 33 17 44 -5 3 -12 1 -16 -5 -3 -5 0 -10 7
-10 7 0 4 -6 -7 -12 -11 -6 -26 -17 -32 -26 -7 -9 -15 -13 -19 -10 -3 4 4 16
15 27 15 15 17 21 7 21 -8 0 -16 -6 -19 -12 -3 -9 -11 -6 -25 9 -12 12 -18 23
-14 26 4 2 1 2 -5 1 -7 -2 -13 3 -13 10 0 8 -7 17 -16 20 -14 5 -15 4 -5 -8z
m137 -111 c-10 -8 -15 -19 -11 -25 6 -9 2 -9 -13 -1 -15 8 -23 7 -32 -4 -19
-23 -29 -18 -27 12 2 19 8 27 25 28 12 1 22 -3 22 -8 0 -5 10 -3 23 6 27 18
40 11 13 -8z"/>
<path d="M1515 879 c-4 -6 -4 -13 -1 -16 3 -4 6 -1 6 6 0 7 5 9 12 5 7 -4 8
-3 4 4 -9 15 -13 15 -21 1z"/>
<path d="M1115 870 c-3 -5 -12 -7 -19 -4 -7 3 -16 -2 -19 -10 -5 -12 0 -16 18
-16 15 0 25 6 25 14 0 8 10 17 23 19 22 4 22 4 0 6 -12 0 -24 -3 -28 -9z"/>
<path d="M1706 866 c5 -12 -3 -14 -40 -11 -28 3 -46 1 -46 -6 0 -5 -5 -7 -12
-3 -7 4 -8 3 -4 -5 5 -8 12 -9 20 -2 13 11 53 4 74 -12 8 -7 12 -4 13 9 1 15
3 13 10 -6 8 -22 8 -21 4 8 -3 20 -1 31 5 27 6 -3 10 -1 10 4 0 6 -9 11 -20
11 -13 0 -18 -5 -14 -14z"/>
<path d="M1919 865 c-1 -11 -3 -24 -3 -30 -1 -5 -4 -15 -8 -20 -4 -6 -3 -26 2
-45 l8 -35 2 30 c2 17 3 43 3 58 -1 24 1 26 16 15 14 -11 14 -11 5 2 -6 8 -14
22 -17 30 -4 11 -6 10 -8 -5z"/>
<path d="M1772 845 c2 -15 -2 -20 -17 -18 -20 1 -20 1 -1 -13 13 -9 23 -10 31
-4 14 12 40 -13 31 -29 -3 -5 0 -12 6 -14 9 -4 8 -6 -3 -6 -8 -1 -24 7 -35 17
-19 18 -58 27 -49 12 6 -9 78 -44 84 -41 11 7 22 -31 12 -43 -8 -9 -7 -13 5
-13 11 0 14 7 11 24 -3 19 -2 21 9 12 10 -8 14 -8 14 -1 0 6 -6 15 -14 19 -18
11 -29 50 -16 58 6 3 10 -3 10 -15 0 -13 8 -24 20 -27 12 -3 20 -14 21 -27 0
-11 3 -15 6 -8 3 7 1 20 -3 30 -4 9 -6 21 -5 26 1 5 -6 3 -15 -5 -13 -10 -16
-10 -10 -1 11 18 -21 52 -41 45 -9 -4 -23 3 -35 18 -17 22 -18 22 -16 4z"/>
<path d="M1176 835 c-3 -8 -1 -15 4 -15 6 0 10 7 10 15 0 8 -2 15 -4 15 -2 0
-6 -7 -10 -15z"/>
<path d="M1215 831 c-9 -11 -15 -26 -12 -33 3 -8 9 -3 17 14 7 15 17 25 22 22
4 -3 6 -10 3 -15 -10 -14 5 -10 22 6 8 9 12 19 8 23 -4 4 -10 1 -12 -6 -4 -9
-9 -10 -17 -2 -9 7 -18 5 -31 -9z"/>
<path d="M1306 835 c3 -6 0 -23 -5 -38 -7 -17 -7 -28 -1 -32 16 -10 12 -38 -5
-31 -8 3 -15 1 -15 -4 0 -16 28 -11 38 6 6 11 12 13 16 6 12 -19 -22 -58 -64
-75 -22 -8 -40 -11 -40 -6 0 5 -11 2 -26 -7 -18 -12 -22 -20 -14 -28 8 -8 13
-7 19 3 5 8 14 10 21 6 7 -4 15 -3 19 2 3 6 16 13 29 17 28 9 30 -9 2 -24 -11
-6 -20 -16 -20 -22 0 -7 5 -6 15 2 17 14 18 11 15 -45 -2 -54 6 -42 18 25 7
35 7 59 1 67 -7 8 -4 13 10 18 12 3 21 13 21 21 0 8 5 14 10 14 6 0 10 7 10
15 0 8 -5 15 -11 15 -5 0 -8 4 -4 10 3 5 12 7 20 3 8 -3 15 0 15 5 0 6 -9 9
-20 7 -11 -2 -20 1 -20 6 0 5 6 9 13 8 25 -3 35 1 40 19 2 9 8 25 12 34 5 13
2 15 -14 11 -16 -4 -19 -9 -11 -18 7 -9 5 -16 -6 -26 -15 -12 -16 -12 -11 6 4
11 3 26 -2 34 -7 11 -13 6 -27 -20 -15 -30 -15 -33 -1 -20 20 16 22 3 3 -21
-24 -32 -28 -17 -13 48 3 13 0 21 -8 21 -7 0 -11 -6 -9 -12z"/>
<path d="M1413 813 c-9 -21 -18 -47 -20 -57 -2 -11 -8 -25 -14 -33 -7 -8 -8
-13 -1 -13 15 0 35 28 28 39 -4 5 -2 12 4 16 6 3 10 -4 10 -17 0 -18 2 -20 10
-8 9 13 14 7 11 -12 0 -5 4 -8 9 -8 6 0 10 -7 10 -15 0 -8 5 -15 10 -15 6 0
10 4 10 9 0 6 -4 13 -10 16 -12 7 -14 26 -2 24 20 -3 32 2 32 16 0 17 9 19 29
6 8 -5 10 -14 6 -21 -5 -9 -4 -11 3 -6 11 7 17 -6 12 -29 -1 -5 5 -3 12 5 7 8
20 21 28 29 13 12 12 13 -7 8 -28 -6 -50 20 -47 55 2 15 -2 30 -7 34 -14 8
-39 -27 -34 -47 3 -8 -1 -24 -9 -34 -13 -18 -13 -15 -6 25 12 59 12 60 -1 60
-5 0 -7 -4 -4 -10 3 -5 2 -10 -3 -10 -6 0 -12 7 -16 15 -9 25 -26 17 -43 -22z
m51 -38 c-6 -25 -15 -31 -27 -18 -4 3 -2 12 4 20 6 7 8 13 3 13 -5 0 -9 11 -9
24 0 24 0 24 18 5 12 -13 15 -27 11 -44z m62 30 c-1 -29 -16 -35 -16 -7 0 16
8 32 16 32 1 0 1 -11 0 -25z"/>
<path d="M1580 815 c0 -13 9 -32 20 -42 17 -17 18 -22 6 -56 -7 -20 -16 -34
-19 -30 -4 3 -7 3 -7 -1 0 -4 7 -15 16 -23 12 -13 15 -13 14 -2 -6 37 0 58 15
53 8 -4 13 -10 10 -14 -3 -5 0 -12 5 -15 8 -5 6 -13 -5 -25 -10 -11 -15 -25
-12 -32 4 -8 8 -5 12 9 l7 22 18 -22 c17 -20 17 -24 4 -45 -18 -27 -16 -31 17
-37 22 -4 22 -3 7 9 -10 7 -15 16 -11 20 12 11 12 40 2 53 -6 7 -7 18 -3 24 4
8 3 9 -4 5 -16 -10 -16 36 0 52 8 8 9 12 1 12 -6 0 -13 -5 -15 -12 -7 -20 -26
1 -32 37 -4 20 -11 33 -15 30 -5 -3 -12 2 -15 11 -9 23 -8 26 7 18 8 -5 8 -2
-2 9 -18 23 -21 22 -21 -8z"/>
<path d="M1270 805 c-12 -13 -26 -23 -30 -20 -8 5 -34 -25 -38 -44 -1 -7 9 -4
24 8 22 17 29 19 37 9 6 -10 7 -8 4 4 -3 9 1 19 9 22 9 3 13 10 10 15 -4 5 0
11 6 14 7 2 10 7 7 11 -3 3 -16 -5 -29 -19z"/>
<path d="M1555 798 c0 -17 6 -33 13 -35 6 -3 12 0 12 7 0 6 -5 8 -11 4 -8 -4
-9 3 -4 25 4 17 3 31 -2 31 -5 0 -9 -14 -8 -32z"/>
<path d="M1632 821 c-10 -6 -11 -13 -1 -34 12 -25 39 -45 39 -28 0 5 -5 11
-12 13 -14 5 -22 48 -8 48 6 0 10 -6 10 -13 0 -8 7 -14 15 -14 8 0 15 7 15 14
0 8 -4 12 -9 8 -5 -3 -12 -1 -16 5 -7 12 -16 12 -33 1z"/>
<path d="M1710 775 c0 -8 8 -15 18 -16 14 0 14 -2 -3 -8 -11 -5 -25 -6 -30 -4
-12 4 -14 -41 -3 -52 3 -4 4 -17 2 -30 -2 -13 1 -36 8 -52 6 -15 10 -32 9 -38
0 -5 6 -1 14 9 8 11 15 23 15 28 0 13 -18 9 -23 -4 -2 -7 -6 6 -8 30 -3 26 -1
41 6 39 5 -2 9 -11 7 -20 -3 -20 17 -32 30 -19 7 7 1 20 -21 41 -19 19 -29 36
-25 46 9 22 38 15 42 -10 3 -20 3 -20 -13 -1 -8 11 -15 15 -15 9 0 -15 25 -34
34 -26 4 4 4 0 1 -9 -8 -20 25 -34 37 -16 5 10 8 8 8 -5 0 -10 4 -16 9 -13 5
4 4 17 -2 31 -12 25 -30 36 -21 12 3 -8 -2 -14 -10 -14 -8 0 -13 4 -10 9 9 15
-15 73 -36 86 -17 10 -20 10 -20 -3z"/>
<path d="M1776 735 c4 -8 8 -15 10 -15 2 0 4 7 4 15 0 8 -4 15 -10 15 -5 0 -7
-7 -4 -15z"/>
<path d="M1495 720 c-3 -6 1 -7 9 -4 18 7 21 14 7 14 -6 0 -13 -4 -16 -10z"/>
<path d="M1906 714 c-7 -18 0 -34 15 -34 5 0 9 11 9 25 0 28 -15 34 -24 9z"/>
<path d="M1110 711 c0 -5 -9 -11 -20 -14 -13 -3 -20 -13 -19 -29 l0 -23 9 23
c8 19 20 26 41 24 3 -1 6 6 6 14 0 8 -4 14 -9 14 -4 0 -8 -4 -8 -9z"/>
<path d="M1520 710 c-9 -6 -10 -10 -3 -10 6 0 14 -10 16 -22 3 -14 4 -10 4 10
-1 17 -1 32 -2 32 0 0 -7 -5 -15 -10z"/>
<path d="M1280 695 c-8 -9 -8 -15 -2 -15 12 0 26 19 19 26 -2 2 -10 -2 -17
-11z"/>
<path d="M1949 683 c-13 -16 -12 -17 4 -4 16 13 21 21 13 21 -2 0 -10 -8 -17
-17z"/>
<path d="M1424 679 c-10 -17 14 -35 28 -21 9 9 8 12 -7 12 -17 0 -18 2 -5 10
9 6 10 10 3 10 -6 0 -15 -5 -19 -11z"/>
<path d="M1375 670 c-4 -6 -11 -7 -17 -4 -7 5 -9 0 -5 -15 3 -12 1 -36 -4 -54
-5 -17 -6 -40 -3 -50 6 -18 6 -18 20 0 13 17 13 17 14 -2 0 -17 2 -17 10 -5 9
13 10 13 10 0 0 -8 8 -1 16 17 21 43 44 51 44 15 0 -20 3 -23 9 -13 6 9 5 24
0 39 -6 14 -7 32 -5 39 3 8 1 11 -4 8 -6 -3 -10 -14 -11 -23 0 -9 -14 -28 -30
-41 -32 -25 -51 -22 -29 4 7 8 9 15 5 15 -4 0 -14 -8 -22 -17 -13 -16 -14 -15
-9 12 7 44 11 59 19 73 5 6 6 12 3 12 -3 0 -8 -5 -11 -10z"/>
<path d="M1400 670 c0 -5 1 -11 2 -12 1 -2 -4 -13 -11 -25 -9 -19 -9 -22 3
-17 17 6 30 34 16 34 -5 0 -7 7 -4 15 4 8 3 15 0 15 -3 0 -6 -4 -6 -10z"/>
<path d="M1487 666 c-4 -9 -2 -16 4 -16 6 0 9 -6 6 -13 -3 -7 1 -21 9 -31 12
-17 13 -15 10 18 -4 43 -20 66 -29 42z"/>
<path d="M1868 661 c3 -8 1 -12 -4 -9 -5 4 -10 -5 -10 -19 l-2 -25 16 24 c9
13 16 26 15 30 -2 4 4 5 12 2 8 -4 12 -11 8 -18 -4 -8 -2 -8 7 1 17 16 4 33
-24 31 -16 -2 -22 -7 -18 -17z"/>
<path d="M2020 660 c0 -5 5 -10 11 -10 5 0 7 5 4 10 -3 6 -8 10 -11 10 -2 0
-4 -4 -4 -10z"/>
<path d="M1559 638 c-3 -15 -3 -32 2 -39 8 -14 -6 -42 -38 -76 -24 -25 -30
-39 -13 -28 6 3 10 1 10 -4 0 -6 -4 -11 -9 -11 -6 0 -8 -9 -6 -20 2 -11 0 -20
-6 -20 -5 0 -9 5 -9 11 0 5 -4 7 -10 4 -5 -3 -10 -2 -10 4 0 5 4 12 9 15 5 3
12 22 15 41 4 19 11 35 16 35 6 0 10 8 10 17 0 9 -3 13 -7 10 -3 -4 -12 1 -19
11 -12 15 -12 15 -7 -6 3 -14 -1 -30 -12 -42 -24 -26 -35 -25 -35 2 0 18 -4
15 -21 -16 -11 -21 -17 -41 -14 -44 3 -3 8 4 12 16 3 12 10 22 15 22 6 0 8 -7
4 -15 -7 -19 -1 -19 19 1 9 9 19 14 22 10 4 -3 1 -12 -5 -18 -7 -7 -12 -20
-12 -31 0 -15 -6 -17 -29 -14 -17 3 -34 8 -40 11 -18 11 -22 -14 -7 -36 21
-29 20 -45 -1 -51 -14 -4 -14 -5 3 -6 23 -1 41 35 20 42 -8 3 -8 8 2 18 9 10
12 10 12 0 0 -7 5 -9 12 -5 8 5 9 2 5 -9 -5 -14 -3 -15 13 -4 11 6 20 15 20
20 0 4 5 5 10 2 6 -4 4 -13 -6 -23 -11 -11 -13 -17 -5 -20 6 -2 8 -9 5 -14 -4
-7 -2 -8 4 -4 6 4 9 13 5 21 -3 9 1 15 10 15 8 0 17 6 20 14 3 8 16 12 31 11
14 -2 28 1 31 5 3 5 12 7 20 3 11 -3 15 2 15 18 0 17 -3 20 -9 10 -6 -10 -13
-10 -29 -2 -16 8 -21 7 -26 -4 -3 -8 -10 -15 -15 -15 -16 0 -7 53 12 74 9 11
17 24 17 29 0 4 7 2 15 -7 18 -18 19 -32 3 -42 -8 -5 -9 -2 -4 11 5 15 4 16
-9 5 -16 -13 -21 -35 -6 -25 5 3 13 1 16 -5 5 -8 12 -7 22 2 9 7 28 19 42 26
l26 12 -25 -4 c-23 -5 -24 -4 -7 9 11 8 14 16 8 20 -7 4 -6 16 4 35 8 16 11
31 6 35 -5 3 -12 -8 -16 -25 -4 -17 -11 -28 -15 -25 -5 3 -7 13 -4 23 5 14 4
15 -5 2 -7 -10 -6 -19 4 -30 11 -13 11 -19 0 -40 -11 -20 -15 -21 -16 -7 -2
26 -4 31 -13 45 -5 8 -4 18 3 25 6 6 11 20 10 32 0 15 -3 13 -12 -10 l-12 -30
-5 40 c-5 36 -6 37 -11 13z"/>
<path d="M984 609 c-23 -125 13 -228 132 -375 22 -28 55 -75 72 -105 32 -56
81 -92 129 -94 18 -1 20 2 12 17 -5 9 -15 15 -22 12 -7 -2 -26 7 -41 21 -15
14 -31 23 -36 20 -4 -3 -6 3 -4 13 3 9 -4 27 -16 40 -11 12 -17 22 -13 22 4 0
-5 11 -20 25 -15 14 -27 30 -27 36 0 6 -4 7 -10 4 -5 -3 -10 -2 -10 4 0 5 -9
20 -20 33 -88 105 -112 153 -118 242 -3 48 -2 67 6 62 6 -3 13 -2 16 3 4 5 2
12 -4 16 -6 4 -8 10 -6 14 3 4 1 13 -4 20 -5 9 -10 -1 -16 -30z"/>
<path d="M1827 637 c-3 -8 -2 -20 3 -26 5 -9 8 -4 8 13 0 29 -3 32 -11 13z"/>
<path d="M1946 633 c-6 -14 -5 -15 5 -6 7 7 10 15 7 18 -3 3 -9 -2 -12 -12z"/>
<path d="M1527 634 c-7 -7 2 -34 12 -34 4 0 7 9 7 20 0 20 -7 25 -19 14z"/>
<path d="M1804 623 c2 -12 -1 -24 -8 -27 -7 -3 -7 -5 2 -5 6 -1 12 -8 12 -16
0 -9 -6 -12 -15 -9 -9 4 -15 0 -15 -10 0 -9 -5 -16 -12 -16 -6 0 -8 -3 -5 -6
4 -4 13 -1 21 5 11 10 15 8 19 -6 4 -14 5 -13 6 5 1 24 17 30 23 10 3 -8 10
-4 17 10 11 21 10 24 -8 29 -11 3 -25 17 -31 32 -8 19 -9 21 -6 4z m36 -53 c0
-5 -2 -10 -4 -10 -3 0 -8 5 -11 10 -3 6 -1 10 4 10 6 0 11 -4 11 -10z"/>
<path d="M1327 623 c-4 -3 -7 -11 -7 -17 0 -6 5 -5 12 2 6 6 9 14 7 17 -3 3
-9 2 -12 -2z"/>
<path d="M1875 619 c-4 -6 -4 -13 -1 -16 3 -4 6 -1 6 6 0 7 5 9 12 5 7 -4 8
-3 4 4 -9 15 -13 15 -21 1z"/>
<path d="M2071 600 c29 -46 29 -45 29 -32 0 6 -12 24 -26 39 l-26 28 23 -35z"/>
<path d="M1163 605 c-3 -9 -3 -18 -1 -21 3 -3 8 4 11 16 6 23 -1 27 -10 5z"/>
<path d="M1224 612 c-23 -15 -44 -74 -26 -71 21 4 31 -3 25 -17 -4 -10 -9 -12
-16 -5 -5 5 -15 7 -22 5 -7 -3 -15 5 -19 19 -7 31 -34 32 -28 0 2 -12 7 -23
11 -23 3 0 19 -11 34 -25 15 -14 27 -23 27 -19 0 3 7 1 15 -6 13 -11 15 -7 11
31 -3 24 -5 48 -5 52 -1 5 -6 5 -13 1 -8 -5 -9 -2 -5 10 4 10 7 22 7 27 0 5 7
9 15 9 8 0 15 5 15 10 0 12 -11 13 -26 2z"/>
<path d="M1185 599 c-4 -6 -5 -12 -2 -15 2 -3 7 2 10 11 7 17 1 20 -8 4z"/>
<path d="M1026 581 c-3 -5 1 -11 9 -14 9 -4 12 -1 8 9 -6 16 -10 17 -17 5z"/>
<path d="M1244 579 c-3 -6 -1 -16 5 -22 8 -8 11 -5 11 11 0 24 -5 28 -16 11z"/>
<path d="M1317 564 c-4 -4 -7 -19 -6 -33 0 -24 1 -24 9 -6 5 12 9 14 9 6 1 -8
3 -12 6 -9 3 3 2 15 -3 27 -4 12 -11 19 -15 15z"/>
<path d="M1926 558 c3 -5 10 -6 15 -3 13 9 11 12 -6 12 -8 0 -12 -4 -9 -9z"/>
<path d="M1035 531 c-9 -15 15 -25 28 -12 9 9 7 10 -7 5 -13 -5 -17 -4 -12 4
4 7 5 12 2 12 -3 0 -7 -4 -11 -9z"/>
<path d="M1250 524 c0 -8 5 -12 10 -9 6 3 10 1 10 -4 0 -6 5 -11 10 -11 6 0 5
8 -2 20 -15 24 -28 26 -28 4z"/>
<path d="M1718 516 c-3 -18 -4 -19 -19 -3 -15 15 -16 14 -16 -9 0 -17 4 -24
13 -20 8 3 14 -1 14 -9 0 -7 4 -16 9 -19 4 -3 8 7 7 22 -1 15 4 26 9 25 6 -1
11 6 12 16 2 25 -25 22 -29 -3z"/>
<path d="M1923 525 c0 -7 6 -11 14 -8 7 3 13 6 13 8 0 2 -6 5 -13 8 -8 3 -14
-1 -14 -8z"/>
<path d="M2098 510 c-3 -19 -2 -37 2 -40 7 -4 14 -50 11 -74 -1 -5 -11 -1 -23
10 -22 19 -22 19 -8 0 12 -15 12 -20 2 -23 -6 -3 -10 -8 -7 -13 3 -4 -2 -47
-10 -95 -9 -48 -13 -90 -10 -93 3 -3 5 4 5 16 0 11 5 24 10 27 6 4 8 11 5 16
-4 5 -2 9 3 9 5 0 8 10 7 23 -1 12 2 27 7 34 5 7 7 17 4 22 -4 5 -2 12 4 16 5
3 10 12 10 18 0 7 -4 6 -10 -3 -9 -13 -10 -13 -10 0 0 8 9 21 21 28 18 12 20
19 14 65 -4 29 -11 61 -15 72 -6 16 -8 13 -12 -15z"/>
<path d="M922 505 c0 -16 2 -22 5 -12 2 9 2 23 0 30 -3 6 -5 -1 -5 -18z"/>
<path d="M1847 512 c5 -11 3 -13 -8 -7 -11 6 -11 5 -2 -5 9 -10 15 -10 27 3
14 13 13 15 -4 20 -14 3 -17 1 -13 -11z"/>
<path d="M1895 520 c-3 -5 -1 -10 4 -10 6 0 11 5 11 10 0 6 -2 10 -4 10 -3 0
-8 -4 -11 -10z"/>
<path d="M1352 513 c-6 -2 -9 -10 -5 -16 4 -6 0 -8 -10 -4 -11 4 -17 1 -17 -9
0 -8 4 -13 8 -10 5 3 9 -1 9 -9 0 -10 -5 -11 -19 -4 -10 5 -18 15 -18 20 0 6
-6 9 -14 6 -7 -3 -19 0 -25 6 -8 8 -11 2 -11 -23 0 -26 3 -31 12 -22 16 16 38
15 38 -2 0 -8 9 -12 26 -10 34 3 38 9 39 49 1 19 1 35 1 34 -1 0 -7 -3 -14 -6z
m5 -45 c-3 -8 -6 -5 -6 6 -1 11 2 17 5 13 3 -3 4 -12 1 -19z"/>
<path d="M1386 505 c-9 -26 -7 -32 5 -12 6 10 9 21 6 23 -2 3 -7 -2 -11 -11z"/>
<path d="M1760 510 c0 -5 5 -10 11 -10 5 0 7 5 4 10 -3 6 -8 10 -11 10 -2 0
-4 -4 -4 -10z"/>
<path d="M1065 500 c-5 -8 -4 -11 3 -6 6 3 18 -7 28 -23 11 -19 23 -27 32 -23
10 3 13 1 8 -6 -4 -7 -3 -12 2 -12 5 0 15 -14 22 -31 8 -19 16 -27 23 -20 10
10 -38 81 -56 81 -6 0 -21 12 -33 27 -16 20 -23 23 -29 13z"/>
<path d="M1659 500 c-1 -8 -1 -19 0 -24 1 -5 -7 -6 -19 -3 -16 4 -20 0 -20
-17 0 -12 -10 -30 -21 -40 -21 -18 -22 -18 -16 3 8 30 1 26 -18 -11 -14 -29
-14 -34 0 -44 20 -15 20 -48 -1 -40 -8 3 -13 2 -10 -3 3 -5 -1 -12 -9 -15 -16
-6 -54 11 -67 29 -5 6 -8 5 -8 -2 0 -7 -8 -13 -17 -13 -15 0 -16 2 -3 10 9 6
10 10 3 10 -24 0 -23 -20 2 -36 20 -13 28 -14 40 -4 8 7 15 8 15 2 0 -5 -7
-15 -15 -22 -8 -7 -15 -18 -14 -24 0 -7 2 -6 6 1 3 8 15 11 31 8 21 -4 23 -3
8 3 -27 12 -5 25 27 17 15 -4 40 1 63 13 22 10 44 17 50 15 7 -2 10 5 7 22 -3
15 -1 25 6 25 6 0 11 -4 11 -10 0 -5 5 -10 12 -10 9 0 9 3 0 12 -9 9 -8 16 6
32 9 11 11 16 5 12 -24 -14 -35 5 -16 27 l18 22 -22 -19 c-17 -14 -20 -22 -12
-32 8 -10 5 -19 -15 -37 -14 -13 -22 -28 -18 -32 4 -5 -1 -5 -11 -2 -10 4 -16
3 -13 -2 3 -4 -6 -13 -20 -20 -31 -14 -44 -14 -44 -1 0 6 6 10 14 10 7 0 16
11 18 25 3 14 1 25 -5 25 -7 0 -6 5 1 12 7 7 20 13 29 13 9 0 19 7 21 15 4 13
3 13 -10 2 -11 -9 -18 -10 -23 -2 -3 5 1 13 9 16 9 3 16 12 16 20 0 16 12 18
26 4 6 -6 15 -5 24 1 13 9 12 10 -2 5 -10 -3 -18 -1 -18 3 0 5 5 11 11 13 7 2
7 11 0 28 -6 15 -10 19 -12 10z m-73 -119 c-9 -8 -18 -12 -22 -9 -9 10 3 25
21 25 14 0 14 -2 1 -16z"/>
<path d="M1876 492 c-3 -5 1 -9 9 -9 8 0 12 4 9 9 -3 4 -7 8 -9 8 -2 0 -6 -4
-9 -8z"/>
<path d="M1435 470 c3 -5 8 -10 11 -10 2 0 4 5 4 10 0 6 -5 10 -11 10 -5 0 -7
-4 -4 -10z"/>
<path d="M1831 464 c0 -11 3 -14 6 -6 3 7 2 16 -1 19 -3 4 -6 -2 -5 -13z"/>
<path d="M917 457 c-3 -8 -1 -20 4 -28 6 -10 9 -7 9 14 0 29 -5 35 -13 14z"/>
<path d="M1056 457 c3 -10 9 -15 12 -12 3 3 0 11 -7 18 -10 9 -11 8 -5 -6z"/>
<path d="M1155 460 c3 -5 8 -10 11 -10 2 0 4 5 4 10 0 6 -5 10 -11 10 -5 0 -7
-4 -4 -10z"/>
<path d="M1770 460 c0 -13 18 -22 24 -11 3 5 -1 11 -9 15 -8 3 -15 1 -15 -4z"/>
<path d="M1080 445 c0 -8 4 -15 10 -15 5 0 7 7 4 15 -4 8 -8 15 -10 15 -2 0
-4 -7 -4 -15z"/>
<path d="M1876 448 c3 -5 10 -6 15 -3 13 9 11 12 -6 12 -8 0 -12 -4 -9 -9z"/>
<path d="M1180 445 c0 -5 5 -17 10 -25 5 -8 10 -10 10 -5 0 6 -5 17 -10 25 -5
8 -10 11 -10 5z"/>
<path d="M1727 426 c-4 -10 -1 -13 8 -9 8 3 12 9 9 14 -7 12 -11 11 -17 -5z"/>
<path d="M1823 420 c-1 -11 2 -18 8 -15 11 7 12 35 1 35 -4 0 -8 -9 -9 -20z"/>
<path d="M1040 426 c0 -2 8 -10 18 -17 15 -13 16 -12 3 4 -13 16 -21 21 -21
13z"/>
<path d="M1215 419 c-10 -15 3 -25 16 -12 7 7 7 13 1 17 -6 3 -14 1 -17 -5z"/>
<path d="M1255 420 c-3 -5 -3 -14 0 -20 3 -5 1 -10 -4 -10 -6 0 -11 -5 -11
-10 0 -7 6 -7 20 0 11 6 17 16 14 25 -4 8 -2 15 3 15 18 0 22 -12 12 -31 -8
-15 -6 -17 6 -13 9 4 13 9 11 12 -3 3 0 12 7 20 8 11 8 14 0 9 -6 -4 -14 -3
-18 3 -8 13 -32 13 -40 0z"/>
<path d="M1345 420 c-3 -5 -1 -10 4 -10 6 0 11 5 11 10 0 6 -2 10 -4 10 -3 0
-8 -4 -11 -10z"/>
<path d="M1525 413 c1 -10 -2 -25 -8 -33 -6 -8 1 -4 16 9 15 14 27 27 27 29 0
3 -3 2 -7 -1 -3 -4 -12 -2 -19 4 -9 7 -12 6 -9 -8z"/>
<path d="M1788 423 c-10 -2 -18 -9 -18 -14 0 -6 -4 -8 -9 -4 -5 3 -12 2 -15
-3 -2 -4 7 -9 20 -10 15 -1 22 2 19 8 -3 6 1 10 9 10 9 0 16 5 16 10 0 6 -1 9
-2 9 -2 -1 -11 -3 -20 -6z"/>
<path d="M1907 416 c-16 -13 -16 -14 -1 -20 9 -4 19 -4 22 -1 3 3 0 5 -7 5 -7
0 -10 4 -6 10 3 5 13 6 22 3 11 -4 14 -3 9 5 -9 15 -17 15 -39 -2z"/>
<path d="M1084 404 c3 -9 6 -18 6 -20 0 -2 5 -4 11 -4 8 0 9 4 0 13 -6 8 -8
17 -4 20 3 4 1 7 -6 7 -8 0 -11 -6 -7 -16z"/>
<path d="M909 388 c0 -7 -3 -22 -5 -33 -9 -39 -10 -76 -3 -81 5 -3 6 -11 2
-19 -3 -8 0 -15 6 -15 6 0 8 -12 5 -32 -4 -25 -3 -29 5 -18 9 12 11 13 11 1 0
-8 2 -12 5 -9 3 2 -1 27 -8 56 -8 28 -12 76 -9 106 2 31 2 56 -2 56 -3 0 -6
-6 -7 -12z"/>
<path d="M1129 383 c-13 -16 -12 -17 4 -4 16 13 21 21 13 21 -2 0 -10 -8 -17
-17z"/>
<path d="M1340 390 c-21 -7 -21 -8 -5 -9 11 0 27 4 35 9 18 11 5 11 -30 0z"/>
<path d="M1835 390 c-3 -5 -11 -8 -18 -6 -7 1 -9 1 -4 -1 4 -3 5 -9 2 -13 -3
-5 -1 -12 5 -15 6 -4 9 -1 8 7 -2 7 3 12 10 10 8 -1 11 2 8 7 -4 5 0 12 6 14
9 4 10 6 1 6 -6 1 -14 -3 -18 -9z"/>
<path d="M1211 373 c6 -7 8 -13 4 -13 -4 0 -2 -7 5 -15 9 -11 10 -18 1 -29
-19 -23 29 -29 59 -8 19 14 32 17 58 10 17 -5 32 -12 32 -17 0 -8 71 -41 89
-41 4 0 8 7 8 15 0 8 -4 12 -9 9 -5 -3 -26 2 -46 12 -31 15 -34 18 -17 24 12
4 1 7 -28 7 -30 0 -53 6 -65 16 -25 23 -35 21 -22 -3 6 -11 7 -20 2 -20 -5 0
-14 10 -20 23 -10 19 -10 18 -5 -10 4 -23 2 -33 -7 -33 -8 0 -10 3 -7 6 3 4 1
16 -5 28 -7 11 -11 28 -10 37 2 9 -4 16 -12 16 -12 0 -13 -4 -5 -14z"/>
<path d="M1640 377 c-8 -7 -16 -19 -18 -27 -1 -10 2 -9 13 4 8 11 21 23 27 28
7 4 9 8 3 8 -5 -1 -17 -6 -25 -13z"/>
<path d="M1876 371 c-10 -11 -16 -26 -13 -33 4 -8 6 -7 6 5 1 9 7 17 14 17 8
0 14 7 14 15 0 19 0 19 -21 -4z"/>
<path d="M1720 364 c0 -8 5 -12 10 -9 6 3 10 10 10 16 0 5 -4 9 -10 9 -5 0
-10 -7 -10 -16z"/>
<path d="M1754 365 c3 -8 0 -15 -6 -15 -6 0 -9 -3 -5 -6 3 -3 15 1 27 9 18 13
19 15 5 21 -24 9 -28 8 -21 -9z"/>
<path d="M2140 371 c0 -15 25 -30 38 -22 9 5 5 11 -13 19 -14 6 -25 8 -25 3z"/>
<path d="M1088 358 c5 -5 16 -8 23 -6 8 3 3 7 -10 11 -17 4 -21 3 -13 -5z"/>
<path d="M1133 358 c-3 -6 -1 -8 4 -5 6 4 11 -3 11 -17 0 -19 -5 -22 -21 -18
-20 5 -20 5 1 -16 25 -25 34 -28 26 -8 -3 8 0 17 6 21 9 6 9 10 -1 16 -11 7
-10 9 4 9 9 0 17 4 17 9 0 13 -39 21 -47 9z"/>
<path d="M1191 350 c-1 -15 -6 -31 -13 -38 -6 -6 -10 -13 -7 -15 12 -10 34 31
28 53 l-7 25 -1 -25z"/>
<path d="M1312 361 c2 -7 7 -12 11 -12 12 1 9 15 -3 20 -7 2 -11 -2 -8 -8z"/>
<path d="M1414 358 c-3 -5 -3 -12 0 -15 3 -4 6 -2 6 4 0 6 11 8 25 5 14 -2 25
-2 25 1 0 9 -51 14 -56 5z"/>
<path d="M1355 350 c3 -5 12 -7 20 -3 21 7 19 13 -6 13 -11 0 -18 -4 -14 -10z"/>
<path d="M1506 352 c-2 -4 2 -13 10 -20 11 -10 15 -9 23 6 8 14 6 18 -10 19
-10 1 -20 -1 -23 -5z"/>
<path d="M1775 339 c-4 -6 -5 -12 -2 -15 2 -3 7 2 10 11 7 17 1 20 -8 4z"/>
<path d="M781 302 c-52 -20 -89 -38 -83 -40 15 -5 142 43 168 63 26 20 22 19
-85 -23z"/>
<path d="M1720 328 c0 -5 -4 -7 -9 -3 -5 3 -12 1 -15 -4 -10 -15 19 -20 43 -6
23 12 23 12 2 18 -11 3 -21 1 -21 -5z"/>
<path d="M1901 324 c11 -14 10 -18 -5 -30 -11 -7 -22 -11 -26 -9 -4 2 -7 -2
-7 -10 0 -8 7 -15 15 -15 9 0 12 3 9 7 -4 3 2 12 12 20 22 15 24 53 3 53 -12
0 -12 -3 -1 -16z"/>
<path d="M940 327 c0 -7 48 -116 72 -164 11 -23 32 -52 46 -65 24 -22 24 -21
-7 37 -17 33 -31 66 -31 73 0 6 -4 12 -9 12 -5 0 -16 18 -25 41 -14 35 -46 81
-46 66z"/>
<path d="M1790 326 c0 -2 7 -7 16 -10 8 -3 12 -2 9 4 -6 10 -25 14 -25 6z"/>
<path d="M2150 310 c0 -11 2 -20 4 -20 2 0 6 9 9 20 3 11 1 20 -4 20 -5 0 -9
-9 -9 -20z"/>
<path d="M2242 310 c7 -10 14 -18 17 -17 4 1 16 -4 28 -11 19 -10 22 -10 17 1
-3 8 -20 21 -39 30 -34 16 -35 16 -23 -3z"/>
<path d="M1825 300 c-3 -6 1 -7 9 -4 18 7 21 14 7 14 -6 0 -13 -4 -16 -10z"/>
<path d="M1300 285 c-10 -13 -9 -15 11 -15 18 0 20 3 10 9 -11 7 -10 10 5 14
14 4 15 5 3 6 -9 0 -22 -6 -29 -14z"/>
<path d="M1646 291 c8 -9 44 -11 44 -3 0 4 -11 8 -25 8 -13 0 -22 -2 -19 -5z"/>
<path d="M1700 281 c0 -12 3 -12 12 -3 13 13 32 16 24 4 -2 -4 7 -8 22 -9 15
0 19 1 10 4 -10 2 -18 9 -18 14 0 5 -11 8 -25 7 -14 -1 -25 -9 -25 -17z"/>
<path d="M1200 281 c0 -7 -5 -9 -12 -5 -6 4 -8 3 -4 -4 3 -6 -2 -15 -11 -21
-14 -8 -15 -10 -3 -11 16 0 45 38 36 48 -3 3 -6 0 -6 -7z"/>
<path d="M1606 275 c-11 -8 -15 -15 -9 -15 6 0 16 7 23 15 16 19 11 19 -14 0z"/>
<path d="M840 270 c-24 -15 -7 -19 20 -5 15 8 19 14 10 14 -8 1 -22 -3 -30 -9z"/>
<path d="M1233 268 c3 -9 2 -18 -3 -20 -5 -2 -6 -9 -1 -16 6 -11 9 -9 13 6 3
11 1 26 -4 33 -8 11 -9 10 -5 -3z"/>
<path d="M1264 267 c3 -10 6 -21 6 -23 0 -9 29 -3 36 8 5 8 2 9 -9 5 -10 -4
-21 1 -27 11 -11 16 -11 15 -6 -1z"/>
<path d="M1343 267 c-3 -7 -3 -9 1 -5 4 3 23 0 42 -8 19 -8 34 -10 34 -6 0 15
-69 32 -77 19z"/>
<path d="M2136 264 c-3 -9 -6 -24 -6 -35 0 -10 -4 -19 -8 -19 -4 0 -8 -9 -8
-21 0 -19 1 -19 13 -3 7 10 13 27 13 39 0 12 5 26 11 32 7 7 7 13 1 17 -5 3
-13 -1 -16 -10z"/>
<path d="M2199 259 c13 -11 26 -17 29 -14 7 6 -29 34 -43 34 -5 0 1 -9 14 -20z"/>
<path d="M792 254 c-12 -8 -20 -20 -16 -25 3 -6 14 0 25 12 29 33 26 38 -9 13z"/>
<path d="M1630 261 c0 -5 10 -7 23 -4 l22 5 -23 -17 c-21 -15 -22 -42 -1 -29
5 3 7 10 4 15 -4 5 -1 9 4 9 6 0 11 -4 11 -10 0 -5 8 -6 17 -3 15 6 15 7 -3
14 -18 7 -18 8 1 9 20 1 20 1 0 10 -27 12 -55 12 -55 1z"/>
<path d="M1573 246 c0 -9 5 -16 11 -16 6 0 4 -5 -4 -10 -8 -5 -10 -10 -5 -10
6 1 19 8 30 16 12 10 14 14 5 12 -8 -3 -20 2 -26 10 -9 13 -11 12 -11 -2z"/>
<path d="M1732 251 c-11 -7 -11 -9 0 -14 9 -3 15 1 15 9 0 8 -1 14 -1 14 -1 0
-7 -4 -14 -9z"/>
<path d="M2245 250 c3 -5 8 -10 11 -10 2 0 4 5 4 10 0 6 -5 10 -11 10 -5 0 -7
-4 -4 -10z"/>
<path d="M840 225 c-13 -14 -21 -27 -18 -30 2 -3 14 9 27 25 26 37 23 39 -9 5z"/>
<path d="M1338 243 c6 -2 10 -9 7 -13 -3 -5 0 -12 6 -16 8 -4 9 -3 5 4 -4 7
-1 12 6 12 9 0 9 3 -2 10 -8 5 -19 9 -25 9 -5 0 -4 -3 3 -6z"/>
<path d="M1450 230 c0 -13 18 -22 24 -11 3 5 -1 11 -9 15 -8 3 -15 1 -15 -4z"/>
<path d="M2202 224 c10 -10 20 -15 24 -12 3 4 -5 12 -18 18 -22 12 -22 12 -6
-6z"/>
<path d="M1297 213 c3 -7 6 -13 8 -13 1 0 7 6 13 13 8 10 6 13 -7 13 -11 0
-17 -6 -14 -13z"/>
<path d="M1398 223 c7 -3 16 -2 19 1 4 3 -2 6 -13 5 -11 0 -14 -3 -6 -6z"/>
<path d="M1613 200 c-1 -11 2 -20 7 -20 4 0 7 7 6 15 -3 23 -12 26 -13 5z"/>
<path d="M1670 204 c-25 -13 -25 -14 -2 -14 12 0 22 4 22 9 0 6 9 8 20 6 11
-2 20 0 20 6 0 13 -30 10 -60 -7z"/>
<path d="M1230 196 c0 -2 7 -7 16 -10 8 -3 12 -2 9 4 -6 10 -25 14 -25 6z"/>
<path d="M1325 190 c4 -6 11 -8 16 -5 14 9 11 15 -7 15 -8 0 -12 -5 -9 -10z"/>
<path d="M1460 190 c0 -6 7 -10 15 -10 8 0 15 2 15 4 0 2 -7 6 -15 10 -8 3
-15 1 -15 -4z"/>
<path d="M1991 185 c0 -11 4 -29 9 -40 8 -18 9 -18 9 5 0 14 -4 32 -9 40 -8
12 -10 12 -9 -5z"/>
<path d="M1286 181 c-3 -5 1 -14 8 -20 10 -9 16 -9 21 -1 4 6 1 9 -7 8 -7 -2
-12 3 -10 10 2 14 -4 16 -12 3z"/>
<path d="M1528 183 c12 -2 30 -2 40 0 9 3 -1 5 -23 4 -22 0 -30 -2 -17 -4z"/>
<path d="M1700 176 c0 -8 4 -17 9 -20 5 -4 7 3 4 14 -6 23 -13 26 -13 6z"/>
<path d="M1390 165 c33 -19 40 -18 40 3 0 11 -3 13 -8 5 -5 -8 -13 -9 -22 -3
-8 6 -19 10 -25 9 -5 0 1 -6 15 -14z"/>
<path d="M1647 167 c-3 -8 0 -14 7 -14 7 0 13 6 13 14 0 17 -13 17 -20 0z"/>
<path d="M2035 149 c-10 -30 0 -33 13 -4 6 14 7 25 2 25 -5 0 -12 -9 -15 -21z"/>
<path d="M1325 150 c-8 -13 5 -13 25 0 13 8 13 10 -2 10 -9 0 -20 -4 -23 -10z"/>
<path d="M1480 130 c-24 -15 -7 -18 20 -3 14 7 18 13 10 13 -8 0 -22 -4 -30
-10z"/>
<path d="M1650 136 c0 -2 8 -10 18 -17 15 -13 16 -12 3 4 -13 16 -21 21 -21
13z"/>
<path d="M1869 128 c0 -7 -3 -25 -5 -40 -3 -16 0 -28 6 -28 5 0 10 11 10 24 0
13 3 31 6 40 3 9 1 16 -5 16 -6 0 -11 -6 -12 -12z"/>
<path d="M1381 127 c2 -1 13 -9 24 -17 19 -14 19 -14 6 3 -7 9 -18 17 -24 17
-6 0 -8 -1 -6 -3z"/>
<path d="M1535 110 c-3 -5 -1 -10 4 -10 6 0 11 5 11 10 0 6 -2 10 -4 10 -3 0
-8 -4 -11 -10z"/>
<path d="M1900 95 c0 -8 4 -15 10 -15 5 0 7 7 4 15 -4 8 -8 15 -10 15 -2 0 -4
-7 -4 -15z"/>
<path d="M1190 71 c5 -11 15 -23 21 -27 6 -3 3 5 -6 20 -20 30 -30 35 -15 7z"/>
<path d="M1437 66 c-4 -10 -1 -13 8 -9 8 3 12 9 9 14 -7 12 -11 11 -17 -5z"/>
<path d="M1486 58 c3 -4 9 -8 15 -8 5 0 9 4 9 8 0 5 -7 9 -15 9 -8 0 -12 -4
-9 -9z"/>
</g>
</svg>
